<?xml version="1.0" encoding="UTF-8"?><svg id="uuid-d0573b2f-fd3c-440f-ae7a-f6446d077d16" xmlns="http://www.w3.org/2000/svg" viewBox="0 0 79.47 79.46"><defs><style>.uuid-e4771f77-1727-49b3-b518-627bf51c7af0{fill:#fff;}.uuid-5490a46e-9a70-4a53-971b-7778d4890540{fill:#1d8ecc;}</style></defs><g id="uuid-af75a2c3-f568-4507-b34b-5062c80e5620"><g><path class="uuid-e4771f77-1727-49b3-b518-627bf51c7af0" d="m0,42.05c0-1.55,0-3.1,0-4.66.05-.22.12-.44.13-.67.39-5.54,1.85-10.79,4.53-15.65C10.85,9.89,20.23,3.04,32.81.63,34.32.34,35.87.21,37.4,0c1.55,0,3.1,0,4.66,0,.2.04.4.11.6.13,5.54.38,10.81,1.81,15.66,4.52,13.06,7.31,20.16,18.48,21.08,33.43.44,7.17-1.1,14.02-4.61,20.3-7.29,13.03-18.47,20.1-33.38,21.02-7.17.44-14-1.14-20.3-4.6C9.89,68.63,3.04,59.22.63,46.64c-.29-1.51-.42-3.06-.63-4.59Z"/><path class="uuid-5490a46e-9a70-4a53-971b-7778d4890540" d="m19.42,57.34h39.99v-29.66c-.3.22-.52.38-.74.55-5.63,4.47-11.27,8.92-16.86,13.43-1.52,1.22-2.95,1.19-4.47.02-5.69-4.35-11.4-8.66-17.1-12.99-.24-.18-.49-.35-.81-.57v29.21Z"/><path class="uuid-5490a46e-9a70-4a53-971b-7778d4890540" d="m21.24,22.09c6.27,4.8,12.36,9.46,18.47,14.14,5.95-4.7,11.84-9.36,17.88-14.14H21.24Z"/></g></g></svg>