<?xml version="1.0" encoding="UTF-8"?><svg id="uuid-eaa8cf9c-4834-42a4-a18a-daf982386de0" xmlns="http://www.w3.org/2000/svg" viewBox="0 0 79.47 79.47"><defs><style>.uuid-b1416d8b-22c7-48d7-80f1-a41fb1369f47{fill:#fff;}.uuid-c11d7a70-1889-4597-8280-250abdcaa27e{fill:#1d8ecc;}</style></defs><g id="uuid-cb205677-2d25-4ee3-9889-572aa362ec69"><g><path class="uuid-b1416d8b-22c7-48d7-80f1-a41fb1369f47" d="m0,42.07c0-1.55,0-3.1,0-4.66.05-.27.1-.55.14-.82.19-1.43.31-2.88.58-4.3,1.68-8.69,5.8-16.03,12.33-21.98C18.73,5.14,25.39,1.9,32.97.61c1.47-.25,2.96-.41,4.44-.61,1.55,0,3.1,0,4.66,0,1.02.12,2.05.22,3.07.37,9.31,1.36,17.29,5.37,23.66,12.32,8.4,9.17,11.87,20.03,10.3,32.37-1.19,9.36-5.32,17.37-12.29,23.74-9.82,8.98-21.41,12.28-34.5,9.96-8.71-1.55-16.04-5.78-21.99-12.31C5.14,60.75,1.9,54.1.61,46.51.36,45.04.2,43.55,0,42.07Z"/><path class="uuid-c11d7a70-1889-4597-8280-250abdcaa27e" d="m50.25,60.5c1.75.01,3.35-.32,4.88-1.01,1.91-.87,3.29-2.38,4.74-3.82,1.07-1.07,1.08-1.92,0-2.99-2.28-2.29-4.56-4.58-6.85-6.86-1.06-1.06-1.93-1.05-3,.02-1.26,1.27-2.5,2.55-3.76,3.81-1.48,1.46-3.28,1.59-4.98.38-4.46-3.18-8.32-6.96-11.6-11.35-1.4-1.87-1.29-3.61.36-5.27,1.29-1.3,2.6-2.59,3.89-3.9.93-.95.95-1.84.02-2.77-2.35-2.37-4.71-4.73-7.08-7.08-.91-.9-1.8-.9-2.72-.02-.77.73-1.52,1.48-2.25,2.25-2.38,2.51-3.47,5.47-2.99,8.93.34,2.47,1.37,4.71,2.52,6.88,4.83,9.09,11.87,15.95,21.13,20.47,2.43,1.19,4.98,2.15,7.67,2.34Z"/></g></g></svg>