<?xml version="1.0" encoding="UTF-8"?><svg id="uuid-671aefe7-1c61-4c9b-bea9-1bfd5f94d01c" xmlns="http://www.w3.org/2000/svg" viewBox="0 0 79.89 79.89"><defs><style>.uuid-cfdc7bf6-8f7b-4325-8dcf-de8aec6bdf1d{fill:#fff;}.uuid-cdefc42c-b513-4573-8595-152a2bb86e42{fill:#1d8ecc;}</style></defs><g id="uuid-f0672f7f-340e-4642-b708-d9c5ed70ad52"><g><path class="uuid-cfdc7bf6-8f7b-4325-8dcf-de8aec6bdf1d" d="m39.97,0c21.91,0,39.7,17.71,39.91,39.45.23,22.52-17.69,39.95-38.91,40.43C18.05,80.4.46,62.27,0,40.87-.48,17.96,18.01-.07,39.97,0Z"/><path class="uuid-cdefc42c-b513-4573-8595-152a2bb86e42" d="m34.43,43.03c0,.51,0,.87,0,1.23,0,7.45.01,14.9-.02,22.35,0,.76.21,1.01.98,1,2.52-.04,5.05-.06,7.57,0,.97.02,1.18-.32,1.17-1.22-.03-7.36-.02-14.72-.02-22.08,0-.39,0-.78,0-1.3.48,0,.84,0,1.2,0,2.56,0,5.11-.03,7.67.02.78.01.99-.26.98-1.01-.04-2.15-.01-4.31-.02-6.47,0-.29-.03-.59-.04-.97h-9.69c0-2.2-.1-4.32.04-6.43.09-1.34.65-1.73,1.98-1.78,2.31-.09,4.61-.12,6.92-.14.59,0,.81-.19.8-.8-.02-2.46-.02-4.93.01-7.39,0-.63-.25-.79-.82-.78-1.32.03-2.65-.01-3.97.03-1.81.05-3.67-.08-5.43.29-4.83,1-7.73,4.22-8.86,8.86-.54,2.23-.33,4.64-.45,6.96-.02.38,0,.77,0,1.25h-8.5c0,2.46.05,4.83-.02,7.19-.03.95.25,1.21,1.18,1.18,2.4-.06,4.8-.02,7.34-.02Z"/></g></g></svg>