<?xml version="1.0" encoding="UTF-8"?><svg id="uuid-71cd37c6-c1d4-4ee0-a38e-16cc548f8256" xmlns="http://www.w3.org/2000/svg" viewBox="0 0 412.68 52.87"><defs><style>.uuid-53fd6f43-fa43-4e7d-b6e1-7843a4828d86,.uuid-ac904e37-a6ba-47ca-bbd8-1de231d16e89{fill:#009fe8;}.uuid-ac904e37-a6ba-47ca-bbd8-1de231d16e89{fill-rule:evenodd;}</style></defs><g id="uuid-feccb8df-32b5-496b-afd4-1a88a2185fb6"><g><g><g><path class="uuid-53fd6f43-fa43-4e7d-b6e1-7843a4828d86" d="m67.91,32.29h.09c1.24,0,2.38.57,3.23,1.43.86.76,1.43,2,1.43,3.23h0c0,1.33-.57,2.47-1.43,3.33h0c-.86.86-2,1.33-3.23,1.33h-.09v-1.05h.09c.95,0,1.9-.38,2.47-1.05h0c.67-.67,1.14-1.52,1.14-2.57h0c0-.95-.48-1.9-1.14-2.57-.57-.67-1.52-1.05-2.47-1.05h-.09v-1.05Zm0,0h0v1.05h0c-.95,0-1.9.38-2.47,1.05h0c-.67.67-1.14,1.62-1.14,2.57h0c0,1.05.48,1.9,1.14,2.57h0c.57.67,1.52,1.05,2.47,1.05h0v1.05h0c-1.24,0-2.38-.48-3.23-1.33h0c-.86-.86-1.43-2-1.43-3.33h0c0-1.24.57-2.47,1.43-3.23h0c.86-.86,2-1.43,3.23-1.43h0Z"/><path class="uuid-53fd6f43-fa43-4e7d-b6e1-7843a4828d86" d="m70.29,39.61h-.76l-1.33-2.28h-.19v-.67h.19c.48,0,.76-.09.95-.29.19-.1.29-.29.29-.57s-.09-.48-.29-.57c-.19-.19-.48-.29-.95-.29h-.19v-.67h.29c.48,0,.95.09,1.33.38.29.29.48.67.48,1.14,0,.67-.38,1.14-1.14,1.43l1.33,2.38Zm-2.28-2.28h-1.33v2.28h-.76v-5.33h2.09v.67h-1.33v1.71h1.33v.67Z"/></g><path class="uuid-ac904e37-a6ba-47ca-bbd8-1de231d16e89" d="m40.23,19.35c.19-.09.29-.09.48-.19l19.02-7.7c-5.99-3.42-12.55-5.14-19.5-5.61v13.51h0Zm0,6.28v-2.09l.19-.09c8.65-2.57,16.17-5.52,23.4-8.75,8.08,9.7.38,20.64-23.49,25.11l2.09-15.12c-.67.38-1.43.67-2.19.95ZM20.83,7.66l13.51,10.65c1.81,1.14,3.9,1.81,5.9,1.05V5.85c-6.28-.38-12.84.29-19.4,1.81h0Zm19.4,15.88v2.09c-3.14,1.05-6.75,1.24-10.27.1l-1.81,14.65C9.61,38.85.67,31.81,0,25.35v-1.81c.57-6.18,5.23-9.99,11.7-12.55,5.61,5.23,11.79,9.8,19.02,12.93,3.42.95,7.04.38,9.51-.38Z"/></g><g><path class="uuid-53fd6f43-fa43-4e7d-b6e1-7843a4828d86" d="m177.44,31.01c-.26-.15-1.97-.15-4.85-.3-.52,0-.92,0-1.44.15h-2.49v-.15c.27-1.08.39-2,.53-2.92.52-.15,1.18-.15,1.96,0,.26,0,.52,0,.79.15h.79c.26,0,.39-.15.52-.46,0-.15-.13-.46-.26-.76-.26-.93-.92-1.54-1.84-2-.13,0-.39-.15-.52-.31-.26,0-.65,0-1.05.31.13-.46.13-.62.13-.62.26-.61.26-1.08.26-1.69.39,0,.78-.16,1.18-.46.52-.31,1.05-.61,1.7-1.23.53,1.38,1.58,3.07,3.01,5.53.39.46.53.61.66.61.26,0,.52-.46.65-1.69.13-1.53.13-3.53.13-5.99-.52-5.83-.26-10.13.53-13.05v-.15c.26-.61.26-1.08,0-1.38-.92-1.08-1.97-1.69-3.15-2-.53,0-.91,0-1.31.46-.79.77-1.44,1.54-2.23,2.31-.26.46-.52.76-.79,1.08-.13.3-.13.45.26.76.13.15.39.15.52.15.4.15.66.15,1.05-.15.39-.15,1.05-.76,1.96-1.53.27-.31.53-.46.79-.31.13.31.26,1.23.13,3.07-.13,1.53-.13,3.69-.13,6.14.13,2.61.26,4.61.13,5.68,0,.46,0,.77-.13.92-.13,0-.26,0-.26-.15-.13-.15-.53-.46-1.18-1.08.53-.46.92-.92.92-1.38,0-1.08-.53-1.99-1.31-2.92-.26-.15-.13-.62.13-1.23.79-1.54,1.05-2.77.91-3.53-.13-.31-.26-.46-.52-.62-.4-.15-.65-.3-.92-.3s-.39,0-.65.15c-.13.31-.39.61-.92.92h-.13c.13-.46.13-.77.13-1.08-.26-.61-.52-.92-.92-1.23-.52-.31-.92-.62-1.31-.62-.53-.15-.65.15-.53.77.26,1.23.39,3.23.39,5.68,0,.31,0,.62-.13,1.08,0,2.15-.13,3.68-.26,4.61v1.84c-.13,0-.26,0-.26.15-.13-.15-.26-.15-.26-.15-.52-.15-.92-.15-1.18.31-.39.31-.53.46-.65.76,0,.15,0,.46.26.92.13.15.13.62.26,1.23-.13,0-.4.15-.52.15-1.18.3-1.96.61-2.49.77-.39.31-.65.46-.91.31-.13,0-.26,0-.26.15q-.13,0-.26.15c-.13.15-.13.46,0,.77.13.15.13.31.26.46.26.61.79,1.07,1.7,1.38.39.15.78.15,1.05-.15.52-.31.91-.62,1.31-.78-.13.78-.27,1.69-.52,2.61-1.18.15-2.36.46-3.54.77-.66.15-1.31.31-1.96.61-1.18.46-2.49.77-3.54.93-.53,0-.66.15-.53.46,0,.15.53.92,1.31,2.15.52.77,1.05.77,1.57.31.92-.61,1.97-1.08,3.15-1.54,2.23-.77,5.24-1.23,8.78-1.23h1.84c1.05.15,2.22.31,3.8.77,1.05.15,1.83.46,2.22.46.65.15.92,0,.79-.62-.39-1.53-1.18-2.61-2.36-3.22Zm-6.55-18.12h.78c.13,0,.39.16.39.31s0,.31-.13.62c-.39.76-.65,1.38-.65,1.84-.13,1.08.13,1.84.79,2.61-.13.46-.52.92-.92,1.38-.26.3-.52.61-.92.92,0-.46.26-2.92.66-7.68Z"/><path class="uuid-53fd6f43-fa43-4e7d-b6e1-7843a4828d86" d="m160.67,19.65c-.26,2.61-.78,4.91-1.7,6.76-.26.61-.39.92,0,1.23.53.61,1.31,0,2.23-1.53.52-.61.79-1.69,1.18-3.23.26-1.23.39-2.61.65-4.45.66-.3,1.31-.61,2.1-.92,0,.46.26.92.78,1.38.52.45.91.15,1.18-.92.52-2.15.78-3.53.65-3.84v-.15c-.26-.61-.92-1.08-2.1-1.69-.4-.15-.65-.15-.79,0-.13.16-.13.46,0,.61.4.93.53,1.69.4,2.31-.65.15-1.31.31-1.84.46.26-1.54.13-2.92-.13-3.84,2.23-1.08,3.27-1.84,3.41-2,0-.16-.13-.46-.26-.92-.27-.46-.52-.77-.78-.92-.13-.16-.26-.16-.4-.16,2.23-1.99,3.15-3.53,3.15-4.76-.13-1.07-.66-2-1.58-2.61-.26-.31-.52-.46-.78-.46-.26.15-.26.31-.26.77.13.61.13,1.39-.27,2.46-.52,1.54-1.7,3.07-3.14,4.45-.66.46-1.31,1.08-2.1,1.53l-.13.15s.26-.77.52-2.15c0-.76.53-1.84,1.7-3.22.13-.31.39-.46.65-.77.26-.46.66-.92,1.18-1.38.13-.15.26-.31.26-.62,0-.15-.13-.15-.39.15-.53.15-1.18.46-1.7.92-.53.31-1.18.62-1.7.92-.26.15-.52.3-.52.3-.13,0-.13-.15-.39-.3-.13-.3-.53-.46-.79-.77q-.26-.15-.39.31c-.13.61-.13,1.38-.13,2.15,0,.15-.13.62-.39,1.38-.13.61.26,1.53,1.31,2.76.39.31.65.61.65.61h-.13c-1.44.31-2.36.46-2.62.61-.52-.15-.52.31-.26.92.39.77.79,1.54,1.31,2.31.39.61.79.61,1.31.46.26-.31.78-.61,1.57-1.08-.13,1.23-.26,2.46-.39,3.69h-.13c-1.18.61-1.83.76-1.96.76v-.76c.13-.31,0-.77-.26-1.54-.26-.76-.65-1.07-1.05-1.22-.39-.16-.52,0-.52.3.13.46.13,1.08-.13,1.84-.26.77-.92,1.69-1.97,2.92-.26.3-.26.92-.13,2.15.26.92.52,1.53.91,1.53.52.3,1.18,0,1.84-.46,1.18-.92,2.23-1.69,3.27-2.46Z"/><path class="uuid-53fd6f43-fa43-4e7d-b6e1-7843a4828d86" d="m145.34,26.1c-.26-.15-.79-.15-1.44,0-1.31,0-2.89.46-4.85,1.23-.26,0-.65-.3-1.31-.92q-.13-.15-.26-.15v.15c-.13.77-.39,1.38-.65,1.99h-.13c-.13.31-.26.61-.26.77-.13.62,0,1.08.4,1.54,0,.15.13.15.13.3h.52c.26,0,.53-.3,1.05-.92.13-.46.52-.76.92-1.23,1.05,1.53,1.83,2.77,2.23,3.68v.15c-.13.31-.92.46-2.23.61-.92,0-1.83,0-2.62-.31-.26-.15-.53-.15-.79-.31-.39-.3-.66-.93-.79-1.53v-.92c.13-1.23-.39-2.15-1.44-2.76-.26-.15-.65-.15-1.31-.15h-.26c-.13,0-.26.31-.52.92-.26.15-.53.15-.79-.15-.26-.31-.52-.46-.91-.62-.26-.3-.39-.3-.26,0,.13.46,0,1.07-.26,2-.26.61-.39.92-.65,1.23-.13.3-.39.46-.66.61-.26,0-.39.45-.39,1.08,0,.76.13,1.38.26,1.84.13.46.26.62.39.62s.26,0,.39-.15c.13,0,.13-.16.13-.16.65-1.07,1.05-1.69,1.18-2,.92-1.08,1.7-2.61,2.23-4.76.39.46.66,1.08.79,2.15.13,2.46,1.31,4.3,3.54,5.37h.13c2.1.77,3.93.92,5.5.46,1.18-.31,2.36-.77,3.41-1.54.26-.15.53-.46.53-.46,0-.15-.79-.93-2.36-2-.79-.61-2.1-1.68-4.06-3.37,1.31-1.22,2.36-1.84,3.15-1.68.4,0,.79.15,1.05.3.27.16.27.46.27.77-.13.92-.53,1.69-1.18,2.15v.3h.13c.92-.15,1.7-.46,2.36-.77,1.18-.46,1.84-.92,1.84-1.08.26-.3.13-.61-.13-1.08-.26-.61-.92-1.07-1.96-1.23Z"/><path class="uuid-53fd6f43-fa43-4e7d-b6e1-7843a4828d86" d="m128.83,7.37c.26-.31.52-.46.65-.46.65-.15.91-.77.79-1.84-.13-.61-.53-1.08-1.18-1.38q-.13-.16-.26-.16c-.92-.46-2.1-.76-3.54-.76-.26,0-.52,0-.52.15s0,.3.13.61c.39.46.26,1.69-.26,3.38-1.57,3.84-3.54,6.61-6.02,8.45-.52.31-.39,1.53.39,3.53.13.3.39.61.52.61.26,0,1.05-.77,2.49-2.31.39,2.76.39,5.68.13,8.45-.26,2.3-.13,4.14.39,5.68.39.77.65,1.23.92,1.23.13,0,.39-.3.66-.92.26-.62.39-1.39.52-2.3,0-3.38.53-8.14,1.31-14.13v-.92c-.52,1.38-1.05,2.76-1.57,4.14-.13.15-.13-.15-.39-.77-.13-.62-.39-1.23-.79-1.84h-.13c1.31-1.69,2.49-3.37,3.41-5.07.92-1.69,1.7-2.76,2.36-3.38Z"/><path class="uuid-53fd6f43-fa43-4e7d-b6e1-7843a4828d86" d="m113.24,16.27c-1.7-1.69-3.27-2.45-4.46-2.15.65-4.14,1.18-6.45,1.31-6.76.52-1.08.52-1.99.26-2.76-.26-.46-.66-.92-1.05-1.08-.39-.15-.78-.3-1.31-.3-.26,0-.66,0-1.05.3-.39.16-.65.46-.79.93-.13.31-.13.61-.13.61,0,.15.26.15.53-.15.39-.15.65-.31.65-.15.13.31.26.92.13,1.84,0,.15-.26,3.22-1.05,8.91h-.13c-.92.61-1.7,1.23-2.36,1.53-1.18.46-1.83,1.38-2.23,2.61v.61c0,.15.13.15.26,0,.26-.15.78-.31,1.83-.31.39,0,1.05-.3,1.97-.92-1.31,6.91-3.01,11.82-5.11,14.74-.65.77-1.18,1.38-1.83,1.84q-.13.15-.26.15c-.13.15-.13.3-.26.3,0,.15.13.15.26.15h.26c.65-.15,1.18-.45,1.83-.76,1.7-.92,3.28-3.07,4.58-5.99l.13.15c1.18,2.46,2.1,3.84,2.75,4.3.26.15.4.15.53.15.52,0,1.05-.46,1.7-1.54,1.57-1.99,2.49-5.83,2.88-11.36.13-1.69.26-2.77.39-3.22.13-.31.13-.77.13-.93.13-.3,0-.46-.39-.77Zm-2.62,1.07c-.13,4.15-.92,8.14-2.36,12.28-.13.15-.13.31-.26.46,0,.15-.13.15-.13.15q-.14.15-.4,0c-.79-.3-1.57-.92-2.1-1.84.13-.3.26-.77.53-1.08.78-2.61,1.44-5.37,2.09-8.44v-.31c.13-.46.13-.77.26-1.23.79-.61,1.44-.92,1.96-.92.26,0,.53.3.39.92Z"/><path class="uuid-53fd6f43-fa43-4e7d-b6e1-7843a4828d86" d="m99.09,33.62c.26.15.39.15.53.15,0,0,.13,0,.13-.15.26-.46.52-.77.79-1.23.53-1.23.92-2.61,1.31-4,.13-.92.39-1.68.52-2.15.14-.46.26-.77.26-.92-.13-.77-.39-1.23-1.05-1.54-.26-.3-.66-.46-1.05-.62-.65-.31-1.18-.31-1.83-.31-.39-.15-.79,0-1.18,0-.26,0-.39.15-.66.15h-.26q-.13.15-.26.15s-.13,0-.26.15c0-.31.13-.46.13-.77.13,0,.26,0,.39-.15.26-.16.66-.31.92-.46.39-.15.79-.31,1.18-.31h.26c.39,0,.66-.15.66-.46q0-.15-.13-.31c.4-.31.79-.77,1.05-1.38,0-.31.13-.61.26-.92.26-.77.39-1.23.52-1.38.26-.15.39-.46.52-.92.13-.61,0-1.07-.26-1.54-.26-.46-.66-.77-1.05-1.08-.52-.31-1.18-.46-1.83-.31h-.13c-.26,0-.66,0-1.05.15.39-.46.79-1.07,1.18-1.84.13-.15.26-.46.39-.77.53,0,.92,0,1.44-.15,1.18-.15,1.83-.31,2.23-.77,0,0-.13-.46-.66-1.23-.52-.77-1.05-1.08-1.57-1.08-.26,0-.52,0-.65.15,0-.92-.4-1.69-.92-1.99-.13,0-.26-.15-.26-.15-.13,0-.39-.15-.52-.15.26-.15.39-.15.52-.15.52-.31,1.18-.46,1.83-.46h.13c.4-.15.79-.15,1.05-.31.26-.15.26-.31.26-.62-.26-.61-.65-1.23-1.44-1.99-.39-.15-.79-.15-1.18.15-.26,0-.52.15-.65.3-.39.15-.79.46-1.18.61-.26.15-.66.31-.92.46-1.44.62-2.75.93-3.93,1.23-1.57.31-3.15.46-4.59.31-.13-.15-.26-.15-.39-.15-.13-.15-.13-.46-.13-.77.13-.31,0-.31-.39,0-.39.15-.52.46-.52.92-.13,1.07.39,1.99,1.44,2.92.39.3.78.3,1.18.3,0-.15.13-.15.26,0-.39.46-.92,1.54-1.57,3.22-.39,1.23-.79,3.53-1.18,7.06-.53,5.68-1.83,9.06-3.67,9.98-.26.16-.52,1.08-.65,2.77,0,.45.13.77.26.92.39,0,1.31-.61,2.62-2,.92-.92,1.7-2.3,2.36-3.99.92.92,1.44,1.99,1.44,2.91,0,2.3.52,3.53,1.44,4.15.52.16.79-.15.79-1.07-.13-1.53-.13-2.61-.13-3.53v-1.38c.39-.46.92-.76,1.44-.92.39-.15.78-.15,1.18,0,0,.77.26,1.38.66,1.99.26.15.13.46-.26.93-.39.15-.79.3-1.18.46-.26.15-.39.3-.39.3v.15h.39c1.31-.3,2.36-.61,3.01-1.08.26,0,.39-.15.52-.3.26-.15.53-.15.66-.31h.26c.13-.15.39-.15.52-.31.39-.15.26-.61-.13-1.23-.13-.3-.26-.46-.39-.46-.26-.31-.66-.46-.92-.31h-.52c-.79.61-1.05.46-.79-.61.26-.31.79-.46,1.31-.77.26-.15.53-.15.92-.3.13,0,.39-.15.52-.15.26,0,.39-.15.66-.15s.65,0,.78.15c.26.15.26,1.08.26,2.46-.13,1.69-.26,2.76-.53,2.92-.13.15-.26.46-.52.46-.26.15-.39.15-.66.31h-.52c-.26.15-.66,0-.92,0-.39-.15-.66-.31-1.05-.46h-.26v.31c.13.61.65,1.23,1.31,1.69.26.31.53.46.92.76.39.15.79.31,1.18.62l.39.15Zm-6.42-26.1c1.7-.62,3.01-1.07,3.93-1.38.13,0,.39-.15.53-.15.13.31.26.46.39.77.13.61.26,1.23.13,2h-.13c-.39.15-.66.15-.92.31-.78.31-1.44.61-1.97.77-.13-.46-.26-.77-.52-.92-.26-.3-.79-.61-1.44-.61-.26,0-.53-.15-.79-.15-.21,0-.42.1-.56.14.09-.15.19-.3.3-.44l1.05-.3Zm-1.44.9v.02c0,.31.26.61.79,1.23.26.16.39.46.39.61-.39.15-.79.31-1.18.46-.39,0-.65.15-1.05.15.21-.75.52-1.6,1.05-2.47Zm3.41,12.45c-.65.15-1.31.31-1.96.62h-.13c-.13-.46-.26-1.08-.26-1.54h.39c.92-.46,1.7-.77,2.36-.92-.13.46-.26.92-.39,1.84Zm-2.75-2.61c-.13-.3-.13-.77-.26-1.08,0-.15-.13-.15-.13-.31h1.18c.52,0,1.05-.15,1.44-.31.26,0,.39.15.66.31.13.15.13.31.13.46-.66.15-1.31.31-1.83.62-.13,0-.26.15-.39.15-.26,0-.53.15-.79.15Zm.79-3.23c-.53.31-.92.62-1.31.92-.13-.45-.13-.76-.13-.92.13-.76-.13-.76-.65,0-.66.77-.92,2.15-.52,3.84.26,1.23.65,2.3,1.31,3.07,0,0,0,.15.13.46.26.31.39.61.66.76h.53c.52-.15,1.05-.46,1.57-.61-.13.46-.26.93-.26,1.38-.53,0-.92.15-1.31.46-.65.31-1.31.92-1.97,1.84-.39-.61-1.18-.77-2.36-.92h-.26c.52-1.54.78-3.07.78-4.76.13-2.46.4-4.92.66-7.06.13-.31.13-.62.26-1.07,0,.15.13.3.26.61.26.3.52.46.65.3.79-.3,1.44-.62,1.97-.77,0-.15.13-.15.26-.15.13.45.52,1.07,1.18,1.38.52.15.79-.16.66-1.08,0-.61-.13-1.07-.13-1.38.79-.46,1.44-.61,1.97-.77.13,0,.39,0,.66.15q-.13,0-.13.15c-.13.3-.39.77-.53,1.23-.26.61-.66,1.23-1.05,1.84-1.18.31-2.1.77-2.88,1.07Zm3.93.77c.26-.15.66-.15.92-.3.52-.15.92-.15,1.18,0h.26c0,.15.13.15.13.45.13.47,0,1.38-.39,2.61-.13.15-.13.31-.26.61,0,.15-.13.31-.13.46h-.13c-.26.15-.4.15-.66.3h-.13c-.13,0-.39,0-.53.15v-1.69h.66c.39-.15.66-.15,1.05-.15,0,0,.13,0,.13-.15h.13v-.46c0-.15,0-.31-.13-.31v-.15c-.26-.15-.66-.31-1.05-.31h-.13c-.26,0-.52,0-.92.15-.26-.46-.39-.77-.66-1.08.26,0,.39-.15.66-.15Z"/><path class="uuid-53fd6f43-fa43-4e7d-b6e1-7843a4828d86" d="m128.83,18.42c.52.15,1.05,0,1.7-.3.39-.31.92-.46,1.44-.62-.79,4.14-.39,7.22,1.44,9.06.26.15.52.15.79,0,.79-.46,1.7-.77,2.62-.92,1.18-.31,2.62-.46,4.06-.31.65,0,.65-.31.13-1.23,0,0,0-.15-.13-.15.79-1.08,1.31-1.99,1.57-2.61.52-1.38.79-2,.79-2.15,0-1.07-.39-2-1.05-2.76-.92-.77-2.23-1.08-3.8-.62-.66.15-1.18.46-1.57.62-1.7.76-2.75,1.69-3.41,2.91,0-.45-.26-1.22-.65-2.15,1.31-.76,2.75-1.23,4.06-1.69,3.4-1.08,6.42-1.38,9.3-.93.52.15.78.15.92,0,0,0,.13-.3.13-.61-.13-.46-.52-.92-1.05-1.53-.79-.92-1.44-1.08-1.97-.77-.26.15-1.18.31-2.62.31-.39.15-.92.15-1.44.3,1.18-1.08,1.84-1.69,2.1-2.15,0-.46-.52-1.08-1.57-1.84-.26-.15-.52-.3-.79-.3.39-.31.92-.62,1.31-.93.79-.46,1.31-.92,1.31-1.07.13-.46-.13-1.08-.65-2-.13-.46-.39-.61-.79-.77-.26,0-.52.15-.92.15,0-.31,0-.61-.13-.92-.13-.77-.65-1.23-1.44-1.69-.39-.31-1.05-.46-1.7-.62h-1.31c-.26,0-.26.16-.13.46.79.77,1.31,1.38,1.31,1.84,0,.15,0,.31-.13.31-.13.15-.52.46-1.18.76-.13,0-.13.16-.13.16-.13.15,0,.15.26.15.39.15.79.15,1.31.31h.52c.13,0,.39,0,.52.15l-1.05.15c-2.75.77-4.2,1.08-4.33,1.08s-.39,0-.39.15c0,0,0,.31.13.61.65,1.38,1.18,2,1.7,2.31.4.15,1.05-.15,2.1-.77h.39q0,.16-.13.31c-1.44,1.38-2.36,2-2.62,2.15-.92,0-1.44.92-1.57,2.77v.46c.13,0,.26,0,.52-.15,1.31-.62,2.75-1.53,4.2-2.92.13-.15.39-.31.52-.46.39-.31.66-.61,1.05-.92h.52v.46c0,.31-.79,1.23-2.1,2.61-.26.31-.66.76-.92,1.07-2.23.62-4.59,1.54-6.94,2.76h-.13c-.26.15-.52,0-.52-.3s-.14-.31-.4.15c-.39.46-.52.92-.52,1.38s.13.77.52,1.08c.26.15.66.15.92.15Zm4.58,1.84c.52-.46,1.18-.77,1.83-.92.26,0,.53-.15.92-.31.26-.15.39-.3.66-.46.65-.31,1.57-.61,2.62-1.08h.52c.13.15.26.46.26.92.13,1.69-.13,3.07-.79,4.45-.65,0-1.44.31-2.1.62-.13,0-.39,0-.52.15-1.31.3-2.36.46-3.28.3,1.05-.61,2.1-1.08,3.28-1.53l.39-.31c.39-.31.92-.46,1.57-.77.26,0,.39-.15.52-.31.13-.31,0-.46,0-.62-.26-.3-.39-.46-.79-.61-.26-.15-.65-.3-1.05-.3,0,0-.26.15-.65.3-.26.15-.4.31-.66.31-.79.3-1.31.46-1.57.3q-.26-.15-.26.46c.26.92.39,1.54.39,1.54,0,.15-.13.15-.39.31-.52.46-.79.77-.92.77-.13-.77-.13-1.85,0-3.23Z"/><path class="uuid-53fd6f43-fa43-4e7d-b6e1-7843a4828d86" d="m275.54,22.26c-.65-.61-1.57-1.07-2.35-1.23-.26,0-.52,0-.52-.15s.13-.61.65-1.38c.92-1.08,1.44-2.15,1.96-3.23,0-.31-.13-.92-.65-1.69-.65-.92-1.7-1.38-3.41-1.53-.39,0-.52,0-.52-.16-.13-.15-.13-.45.13-.61,1.7-2.45,3.01-5.07,3.67-7.98.26-.61-.14-1.23-.79-1.69-1.83-1.38-3.54-1.54-5.11-.61-.65.3-.79.61-.79.77s.26.15.92,0c1.57-.15,2.36.46,2.36,1.69-.27,2.3-1.57,5.37-4.06,8.9-.4.77-.79,1.23-1.05,1.38-.13.15-.39.62-.39,1.38-.13.62-.13,1.23,0,1.69,0,.31.13.61.13.92.13.46.39.61.52.46,2.36-1.69,4.06-2.76,5.24-3.07.13-.15.26-.15.39,0,.13.16,0,.47-.39,1.23-1.57,3.23-2.88,4.76-4.19,4.91-.79,0-1.05.92-1.05,2.76,0,.46,0,.92.26,1.38.26.61.53.92,1.05.61,1.7-.92,2.88-1.69,3.54-2.3.52-.62,1.31-.92,2.22-1.08.66-.15.92-.15,1.18.15.52,1.07.52,2.46-.26,4.3-.26.46-.66,1.38-1.18,2.61-.65.61-1.44.61-2.35.46-.92-.46-1.83-.92-2.62-1.84-.39-.31-.52-.16-.39.46.26.92.79,1.84,1.57,2.46,1.05.92,1.7,1.69,2.22,2.76.39.46.92.46,1.83,0,1.96-1.85,3.14-4.15,3.54-7.06.13-.46.13-.77.13-1.08.13-.3.13-.46.26-.61.13-.46.13-.77.13-1.08s-.13-.61-.39-1.08c-.26-.46-.66-1.08-1.44-1.84Z"/><path class="uuid-53fd6f43-fa43-4e7d-b6e1-7843a4828d86" d="m265.59,5.68v-.15c-.13-.46-.52-.77-1.18-1.23-.79-.31-1.96-.61-3.4-.61-.26,0-.39,0-.52.15,0,.15.13.31.26.46.65.77,0,2.91-1.97,6.6-1.57,2.46-3.01,4.3-4.58,5.37-.65.31-.52,1.54.39,3.68.26.46.53.77.66.77.26,0,1.05-.92,2.49-2.61.65,1.84.91,2.76.91,2.92-.13,2.91-.39,5.68-.78,8.75-.26.61.39,1.99,1.96,3.99,0,.31.13.31.39.31.13,0,.26-.15.39-.61.26-1.84.52-5.68.92-11.36,0-1.08.26-2.92.79-5.99.13-.15,0-.3,0-.3-.65,1.54-1.31,3.22-1.83,4.76-.14,0-.26-.16-.4-.46-.26-.92-.79-1.84-1.7-2.77,1.31-1.84,2.62-3.84,3.54-5.83,1.31-2.46,2.36-3.84,3.01-4.15.26-.15.53-.46.65-.92v-.77Z"/><path class="uuid-53fd6f43-fa43-4e7d-b6e1-7843a4828d86" d="m209.14,16.12v-.46c0-.31-.13-.62-.52-.92-.27-.15-.53-.3-.79-.3-.39-.31-.78-.31-1.31-.46h-.39c0,.15,0,.31.13.31,0,.3.13.46,0,.76v.16c-.79-.16-1.31-.31-1.71-.31.13-.31.27-.61.53-.77.52-.92.91-1.54,1.44-2.15.4.46.92.76,1.31,1.08,1.44.92,2.49.92,3.27,0,.92-1.23,1.44-2.61,1.58-4.3.13-1.23.26-2.3.52-3.22,0-.46,0-1.08-.26-1.54-.79-1.38-1.7-2.15-2.88-2.3-.39,0-.79,0-1.18.31-.39,0-.79.3-1.05.61-.13.15-.13.31-.26.46-.25.44-.76.89-1.61,1.76-.4-1.02-1.17-1.61-2.32-1.91-.53-.15-1.05-.15-1.7.15-.92.31-1.97,1.08-3.28,2.31-.78.46-1.44.92-1.96,1.23,0-.15-.13-.31-.26-.46-.65-.92-1.57-1.84-2.62-2.3-.4-.15-1.18.15-2.49.92-.53.46-1.05.92-1.7,1.38-.26.31-.26.62,0,.77.26.46.79.62,1.31.46.13,0,.26,0,.39-.15.39-.15.92-.31,1.44-.61.26,0,.52,0,.65.15.27.31.27,1.69.13,4.14-.13.92-.26,1.99-.26,3.22-.39-.46-1.05-.77-1.97-.77-.13,0-.39-.15-.53-.15-.26,0-.52.15-.78.15.13-.46.26-.92.39-1.38.26-.92.26-1.54-.13-2.15-.52-.92-1.18-1.54-2.1-1.69-.27,0-.66,0-.79-.31-.13-.15-.26-.15-.39-.15v.77c.13.61.26,1.23.52,1.84.26.46.39,1.69.39,3.38-.13,7.06-.78,11.67-1.7,13.97-.39,1.23-.66,1.84-.78,1.84-.13,0-.26,0-.4-.15-.13-.31-.26-.16-.39.3v2.61c0,.46.13.76.26.92.13,0,.39-.15.78-.46,1.96-2.15,3.15-4.91,3.54-8.6.39.46.65.62.79.77.39-.15.78-.3,1.05-.61l.26-.46c.66-.77,1.44-1.69,2.09-2.46.13,4.76.13,7.21-.13,7.37-.13.15-.79-.31-1.97-1.08-.39-.31-.92-.61-1.44-1.07-.26-.15-.39-.15-.39-.15-.13.15,0,.15,0,.31.79,1.23,1.31,2.15,1.83,3.07.66.77,1.05,1.54,1.44,2.15.65.61,1.18,1.38,1.7,2.15.26.46.52.77.65.77.26,0,.52-.62.65-1.85.13-1.84.13-4.45,0-7.83-.13-2.15-.26-4.14-.26-6.14.39-.46.78-1.07,1.18-1.69.13,0,.13-.15,0-.15,0-.15,0,0-.13,0-.39.31-.79.46-1.05.77,0-4.14.39-7.68,1.18-10.29.52.31,1.05.46,1.57.77.39,0,.66.46.79,1.08,0,.61-.13,1.38-.52,2.15-.39.31-.65.46-.79.46-.26.15-.39.46-.13.92.13.61.4,1.23.79,1.68.26.46.53.46.79.15.39-.61.79-1.07,1.05-1.54.26.31.66.92,1.18,1.54-.92,0-1.83.31-2.75.77-.39.15-.65.3-.52.46,0,.16.13.16.66.16.65-.16,1.44-.16,2.62,0-1.18,1.54-3.01,3.38-5.37,5.53-.39.31-.26.46.39.46,1.57-.15,3.27-1.38,5.51-3.99.39-.61.91-1.08,1.31-1.69.65.15,1.31.31,1.97.61-1.05,1.38-2.23,2.46-3.27,3.07-.26.31-.53.46-.79.61-.52.15-.52,1.23,0,2.92,0,.46.13.61.39.61,0,.15.26,0,.4-.15.13,0,.26-.15.52-.31,1.31-1.23,2.49-2.61,3.53-3.99.39,0,.53,0,.65.31,0,.31,0,.61-.13.92-1.57,2.46-3.14,4.15-4.58,5.22-.14.15-.26.15-.4.31-.65.46-1.05,1.07-1.05,1.83,0,.31.13.78.13,1.23s.13.61.13.77c.13,0,.26-.15.53-.15.26-.31.39-.46.66-.61.65-.46,1.31-.92,1.83-1.38.65-.61,1.7-1.08,3.28-1.53.26-.15.39,0,.65,0,.26.31.13.61-.26,1.08-2.23,2-4.06,3.53-5.5,4.76-1.44,1.08-2.49,1.84-3.41,2.3-.79.15-1.83.31-2.88.61h-.13q0,.15.13.3c1.7.77,3.54.92,5.37.3l.92-.45c1.44-.77,2.22-1.23,2.35-1.38,1.05-.77,2.1-1.84,3.15-3.07.13-.15.26-.31.39-.61.79-.77,1.44-1.54,1.97-2,.53-.46.79-.77.92-1.08,0-.15.13-.46,0-.92,0-.77-.26-1.38-.92-2-.52-.62-1.05-.77-1.7-.77h-.26v-.15l.4-.62c.39-.76.52-1.53.26-2.46-.13-.61-.39-.92-.66-1.23q-.13-.16-.26-.31c-.39-.15-.65-.3-.92-.3.27-.31.53-.62.66-.92.13.15.39.15.52.3,1.57.62,3.15,1.53,4.59,2.46,2.1,1.08,3.27,1.53,3.67,1.23.13,0-.13-.61-.52-1.69-.92-1.84-3.02-3.23-6.42-4.15Zm-3.4-9.98c.4-.15.79-.3,1.18-.46.39-.15.65-.31.91-.46.4-.31.66-.46.92-.77.39-.46.79-.77,1.31-1.08,0,0,.13,0,.26.15,0,0,.13.31.13.77.13,1.38.13,2.91-.13,4.3,0,1.07-.26,1.84-.53,2.46-.13.15-.26.31-.52.31-.39.15-.92.15-1.44.15-.26,0-.52-.15-.91-.15.13-.31.52-.61.91-1.23.4-.31.79-.92,1.44-1.38v-.62c-.13-.61-.52-1.08-1.05-1.38-.13,0-.26,0-.4-.15h-.26c-.13,0-.26.15-.39.46,0,.31-.65,1.54-1.96,3.84.26-2,.39-3.69.52-4.76Zm-16.12,9.37c.92,0,1.44.15,1.7.45v.15c.13.16.13.31,0,.47q0,.15-.13.31c-.66,1.38-1.31,2.3-1.84,2.91,0-1.38.13-2.91.26-4.3Zm1.7,4.91c-.79.31-1.31.62-1.44.62-.26,0-.39-.15-.53-.15v-.15l.13-.15c.65-.92,1.31-1.69,1.83-2.31.66-.61,1.31-1.08,1.97-1.53,0,.92,0,1.84.13,2.92l-2.09.76Zm8.26-12.59c.78-1.23,1.7-2.15,2.36-2.61.13-.15.26-.31.39-.31.26-.15.52-.15.66-.15s.26.15.26.46v1.68c-.26.15-.66.46-1.31,1.23-.26.31-.66.62-1.05,1.08-.13-.46-.66-.92-1.31-1.38Zm3.41,4.76s-.13.15-.26.3h-.79c-.4.16-.92.16-1.44,0,.53-.76,1.05-1.53,1.44-2.3.52-.92,1.05-1.84,1.44-2.61,0,1.53-.13,3.07-.39,4.6Z"/><path class="uuid-53fd6f43-fa43-4e7d-b6e1-7843a4828d86" d="m310.26,3.07c-1.05.31-1.83.62-2.62.77-.79.15-1.97.31-3.54.77.26-.92.13-1.69-.26-2.45,0-.15-.13-.15-.13-.31-.26-.46-.52-.92-.91-1.08-.26-.15-.39-.15-.53-.31-.39,0-.65-.15-.79,0h-.26c-.52.15-.79.46-1.18,1.08-.13.46-.13.62.26.46.26,0,.52,0,.92.3.13.31.39.62.39.92.13.3,0,1.08-.39,2.15-3.01.76-5.11,1.53-6.55,1.99-1.57.77-3.54,1.23-6.03,1.38-.53,0-.66.46-.26,1.38.39.92.92,1.53,1.44,1.84.52.46.92.46,1.18.3,3.14-1.38,6.03-2.61,8.65-3.53-3.27,6.45-5.9,10.13-8.12,11.05-.65.15-1.44.31-2.22.46-.79,0-1.57,0-2.36-.31-.13-.15-.13,0-.26,0v.31c1.18,1.54,3.01,2.15,5.64,1.84,1.05-.15,1.96-.61,3.01-1.23.53-.31,1.05-1.23,1.83-2.46.26-.61.66-1.23.92-1.69,0,1.53,0,2.77-.13,3.68-.13,1.08-.26,2.61-.4,4.61,0,2-.13,3.38-.26,4.3-.13,1.53.13,3.07.91,4.45,0,.15.13.31.26.46.13.46.39.62.53.62s.26-.15.39-.46c.39-.77.39-2.3.39-4.91-.13-.92-.13-1.84-.13-2.76.52.92,1.05,1.68,1.57,2.45.26.62.65,1.08,1.05,1.69.39.61.92,1.23,1.31,1.69l.26.3c1.05,1.38,1.83,2.46,2.1,3.23.13.77.52.77.91.31.66-.77,1.31-2.46,1.84-4.92.13-.46.26-2.46.26-5.68,0-7.98-.39-12.44-1.05-13.35q-.13,0-.13-.16c-1.05-1.23-2.1-1.69-3.15-1.53-.26,0-.52.15-.79.31-.52.31-1.05.77-1.57,1.53-.39.46-.79.92-1.05,1.54-.13.31-.26.46-.4.77-.26-.61-.52-.92-.78-1.38.39-.77.78-1.38,1.18-2,.39-.77.65-1.53,1.05-2.15.26-.61.53-1.23.79-1.69l.79-.31c.39,0,.66-.15,1.05-.31.92-.15,1.44-.15,1.44,0s-.26.31-.66.62c-1.17.77-1.7,1.38-1.7,1.53.13.15.26.15.4,0,1.18-.46,2.62-.92,4.32-1.23,1.57-.31,2.75-.46,3.27-.31.53.15.92.15,1.05,0,.26-.15.26-.46.39-.92,0-.62-.52-1.53-1.44-2.61-.39-.46-1.05-.92-1.7-1.08Zm-4.72,28.56c-.26,0-.52,0-1.05-.46-.27-.15-.39-.31-.66-.46-.52-.46-1.05-.92-1.57-1.54-.26-.15-.39-.3-.52-.46.13,0,.26-.16.52-.16.53-.31,1.05-.46,1.57-.92.26,0,.53-.31.79-.46.65-.46,1.05-.77,1.31-.77-.13,3.22-.27,5.06-.4,5.22Zm-4.59-15.51c0-.15.14-.15.26-.15.13-.15.39-.3.65-.3.13-.15.26-.15.39-.15.39-.31.92-.62,1.57-1.08.13-.15.39-.31.66-.46.13-.15.39-.15.65-.15.26.15.39.46.39.92.26,3.53.4,6.91.4,10.13-.4-.46-.79-.77-1.44-.92-.27,0-.53,0-.66-.15-.26-.3-.39-.62-.13-1.23l.13-.31c.26-.76.53-1.38.92-1.99.13-.46.26-.92.13-1.38-.26-1.08-.66-1.69-1.05-2q-.13-.15-.26-.31c-.26,0-.52-.15-1.05-.15q-.13,0-.26.15c-.26,0-.65.31-1.05.61-.26.15-.4.31-.66.46.13-.46.26-1.07.39-1.54Zm-.79,4.15c.4-.61.66-1.08,1.05-1.23.26,0,.39,0,.65.31.13.31.13.77,0,1.23-.26,1.07-.52,1.84-.65,2.45v.47c0,.45.26,1.07.79,1.84.13.15.13.31.26.31.26.61.39,1.08.39,1.23,0,0-.13.15-.13.31l-.26.3c-.26.31-.52.62-.79.92-.13-.15-.26-.3-.26-.46-.52-.62-1.05-1.23-1.57-2,.13-2.61.26-4.45.52-5.68Z"/><path class="uuid-53fd6f43-fa43-4e7d-b6e1-7843a4828d86" d="m235.08,11.51c-.92,2.76-.79,4.76.39,5.83.13.31.39.31.52.31.39-.15.53-.46.79-1.23.4-1.85.66-3.23.92-4.15.52-1.38.52-2.45.13-3.22-.26-.61-.78-1.23-1.83-1.69-.26-.15-.52-.15-.91-.31-.53-.15-.79-.15-.92,0-.13.15-.13.46,0,.77.65,1.69,1.05,2.92.92,3.69Z"/><path class="uuid-53fd6f43-fa43-4e7d-b6e1-7843a4828d86" d="m241.89,26.41l-.13-.15.13-.15c.66-1.23,1.18-2.61,1.7-4.14.39-1.23.65-2,.92-2.46.27-.77-.13-1.69-1.44-2.46-.13-.15-.39-.3-.52-.3.52-.46,1.44-1.23,2.75-1.84.39-.31.66-.61.79-1.07-.13-.31-.39-.77-.79-1.08-.39-.46-.91-.61-1.18-.61-.39,0-.65,0-.92-.31-.39-.62-.13-2.3.79-5.22.52-1.54-.26-2.92-2.1-4.3-.26-.15-.39-.3-.52-.3s-.39,0-.92.15c-.39.15-.66.46-.78.92-.14,0-.66,1.23-1.84,3.38-.13,0-.13.15-.13.3h.39c.53-.15,1.31-.46,2.09-.62.13.15.26.15.26.15.26.46.26,1.38,0,2.92-.39,1.84-.39,3.07.13,3.68.79.93,1.18,1.38,1.31,1.69,0,.77-1.57,2.15-4.45,4.45-.52.15-1.05.15-1.44.31-.39.16-.65.16-.65.31-.13,0-.26.3-.26.76-.13.62-.13,1.23.13,1.84.13.46.39.77.52.77,0,.15.13.15.26.15.26-.15.39-.15.65-.31,1.7-.76,2.88-1.53,3.8-2.15.13-.15.39-.15.52,0,.13,0,.13.31,0,.62-.39,1.23-.91,2.61-1.44,3.68-1.18-.77-2.35-1.08-3.54-1.38-1.31-.31-2.75-.31-4.06,0h-.26c-.39-6.91-.26-12.44.65-16.43.13-.46.13-.76.26-1.08.39-.76.39-1.53.13-1.84-.13,0-.13-.15-.13-.15-.91-1.08-1.96-1.84-3.01-2.15-.39-.15-.79,0-1.31.15-.52.46-.92.77-1.44,1.23-.52.46-1.05.92-1.44,1.53-.26.31-.26.46,0,.77.52.46.92.46,1.44.46q.13,0,.26-.15c.26,0,.92-.31,1.7-.77.26-.15.53-.15.53,0,.26.31.26,1.68.13,4.45-.13,1.08-.13,2.15-.26,3.22-.53-.76-1.31-1.23-2.36-1.23-.13,0-.26,0-.39.15-.39,0-.78,0-1.05.31.13-.77.26-1.54.52-2.15.26-.92.13-1.69-.13-2.3-.65-1.08-1.44-1.69-2.36-1.69-.39-.15-.66-.15-.92-.46-.26-.15-.39-.15-.52-.15,0,0,0,.31.13.92.13.61.26,1.08.65,1.84.26.46.26,1.69.26,3.69-.13,7.68-.65,12.59-1.57,15.05-.39,1.23-.65,1.84-.79,1.84-.13.15-.26,0-.39-.16-.13-.15-.26,0-.26.46-.13.77-.13,1.69,0,2.31,0,.61,0,.77.13.92.13.15.4,0,.79-.47,1.18-1.38,2.23-3.07,3.01-5.21l2.88,3.53c1.96,2.46,3.14,3.84,3.4,4.14.52.62.79.92.91.92.27,0,.4-.61.53-1.84,0-.77.13-1.68.13-2.76,1.31,1.08,2.75,1.38,4.19,1.08.53,0,.92-.16,1.44-.31.92-.31,1.84-1.08,2.88-2.46,1.44,1.08,2.88,2.3,4.32,3.53,1.31,1.23,2.49,2.15,3.54,2.76.52.31.91.31,1.05.31.26-.15.26-1.08-.13-2.61-.65-1.99-3.01-4.14-7.2-6.44Zm-12.7-11.21c0,.76,0,1.84.13,3.07-.92.46-1.44.77-1.84,1.07-.26,0-.52.16-.65.16-.39.15-.79.3-1.18.3-.14,0-.26,0-.26-.15-.13,0,0-.15,0-.31.52-.76.92-1.38,1.44-1.99.79-.92,1.57-1.69,2.36-2.15Zm-4.19-1.23c.92.15,1.44.31,1.7.61,0,0,.13.15.13.31v.31c0,.15-.13.31-.13.46-.66,1.38-1.18,2.31-1.83,3.07,0-2.3.13-3.99.13-4.76Zm4.45,13.51c0,.92-.13,1.38-.26,1.38-.13.15-.92-.31-2.36-1.08-.79-.46-1.57-1.07-2.62-1.69.26-1.69.53-2.92.53-3.53.13.3.39.61.66,1.08.13.15.39.3.65.3s.53-.15.79-.45v-.16c.65-.92,1.18-1.84,1.96-2.76.13-.31.26-.46.53-.62.13,3.54.26,5.99.13,7.52Zm6.55,1.54c-.78.46-1.7.62-2.75.46-.26,0-.39,0-.79-.15h-.65v-4.46q-.13-.15,0-.15c1.44.3,2.88.77,4.19,1.38.79.31,1.44.77,2.09,1.23-.65.77-1.31,1.38-2.09,1.69Z"/><path class="uuid-53fd6f43-fa43-4e7d-b6e1-7843a4828d86" d="m282.49,16.12c-.65-.46-1.96-.76-4.06-.76-.52,0-.91.15-1.31.31h-.13c-.13.15-.26.3-.26.46,0,.31.13.47.26.77h.13c.13.15.39.31.66.46,1.05.46,2.09,1.07,3.01,1.84,1.45,1.08,2.49,1.54,2.89,1.38.26-.31.26-.77,0-1.54-.39-1.53-.78-2.45-1.18-2.92Z"/><path class="uuid-53fd6f43-fa43-4e7d-b6e1-7843a4828d86" d="m412.59,6.29c-.4-1.69-1.31-2.77-2.75-3.22-2.36-.92-5.37-.46-9.04,1.23-.66.31-1.18.61-1.84,1.08-.52.15-.91.46-1.44.76-.14.15-.27.15-.27.31s.13.15.53.15c.26-.15.65,0,1.18.15.13,0,.39.15.66.15.39.15.79.31,1.18.46,1.05.15,2.09,0,3.01-.61,1.96-1.23,3.67-1.53,5.11-1.23,0,0,.13,0,.26.15.13.15.26.61.13,1.08-.39,3.22-.66,6.91-.79,10.75-.13,4.61-.13,9.06-.13,13.36,0,.46,0,.61-.13.61,0,.16-.14.16-.27.16-1.31-.16-2.89-.46-4.58-1.08-.14-.15-.27,0-.27,0,0,.15,0,.3.14.46,1.31,1.69,2.75,3.22,4.59,4.3.91.61,1.57,1.08,1.96,1.38.39.46.65.77.92.92.13.15.39.15.52,0,.39-.77.52-2.15.26-4.45-.65-10.74-.39-19.04.79-24.41,0-.62.13-.93.26-.93.13-.3.13-.77,0-1.53Z"/><path class="uuid-53fd6f43-fa43-4e7d-b6e1-7843a4828d86" d="m394.9,16.43c.66.15,1.05.15,1.44-.16.92-.46,1.71-.92,2.62-1.38.52-.15,1.18-.46,1.84-.77.79-.3,1.57-.46,2.35-.77.79-.3,1.18-.92,1.18-1.69-.13-.77-.79-1.23-1.97-1.38-.52,0-1.05,0-1.57.15-.53.15-1.18.31-1.84.62-.26.15-.52.31-.79.31-2.49,1.23-4.19,1.69-5.24,1.53-.39-.15-.53,0-.39.46.39,1.69,1.18,2.76,2.36,3.07Z"/><path class="uuid-53fd6f43-fa43-4e7d-b6e1-7843a4828d86" d="m402.89,26.87c-.13-.3-.13-.61,0-.92-.13-.46.39-1.69,1.57-3.84.39-.61.13-1.53-.79-2.61-1.05-1.08-1.96-1.69-2.88-1.69-.4,0-.66.15-1.05.31-.26.15-.52.3-.78.46-1.7,1.08-3.14,1.84-4.72,2.61-.26-.46-.52-.77-.92-1.08-.52-.77-.78-1.23-.66-1.69.26-.3.26-.46.13-.46,0-.15-.13,0-.39.3-.39.31-.52.77-.65,1.38,0,.61,0,1.38.26,2.15.39,1.38.53,2.46.53,3.22-.14.92,0,2,.39,2.92.39,1.07,1.05,1.84,1.7,2.46.66.46,1.05.61,1.31.61s.39-.15.53-.61c.13-.15.13-.46,0-.92.78-.31,1.57-.46,2.49-.77.52,0,1.18-.16,1.84-.31h2.09c.26,0,.39-.3.39-.77,0-.15-.14-.46-.39-.77Zm-2.36-4.61c-.26.92-.65,1.69-1.05,2.46-.13.15-.26.46-.52.61-.39.31-.91.46-1.44.77-.66.15-1.18.31-1.84.31-.26-2-.52-3.07-.52-3.23.91.15,2.22-.31,3.8-1.07.26-.15.52-.31.66-.46.39-.15.79-.15.92-.15.13.15.13.3,0,.76Z"/><path class="uuid-53fd6f43-fa43-4e7d-b6e1-7843a4828d86" d="m339.87,26.87c-.65.61-1.31,1.23-1.83,1.84-1.31,1.08-2.36,2-3.41,2.61-.13.15-.26.15-.39.15-.13-.15-.26-.3-.26-.61-.13-4.3,0-7.99.4-11.2.26.15.39,0,.65,0,.39-.31,1.44-.77,3.01-1.38.39-.3,1.05-.46,1.57-.77.13.15.26.31.39.62.13.3.52.3,1.05,0,.79-.46,1.7-2.46,2.62-5.99.53-1.85,1.05-3.38,1.7-4.61.39-.46.39-.77.13-1.23-1.05-1.99-2.36-3.22-3.8-3.84-.92-.15-2.1,0-3.67.61-.26.15-.52.15-.79.31-.79.15-1.7.77-2.75,1.84-.4.31-.52.61-.52.92s.26.46.65.31h1.44c.65.15,1.18,0,1.97-.16.13-.15.26-.15.52-.31,1.57-.77,2.62-.92,3.14-.46.26.15.26.61.13,1.53-.13.77-.26,1.54-.39,2.46-.26-.46-.39-.62-.66-.77-.52-.15-1.44,0-2.75.46l-.39.15c-1.18.46-2.23.61-3.14.92v-.76c0-.62-.13-.92-.4-1.08-.13,0-.39.31-.65.61-.26.61-.52,1.08-.52,1.53-.13,2-.39,5.07-.78,9.06-.4,5.07-.53,8.59-.27,10.44.53,1.68,1.18,2.92,2.1,3.99.78.77,1.44,1.23,1.96,1.08.39,0,.65-.46,1.05-1.68,0-.47.39-1.08,1.05-1.84.13-.31.39-.62.65-.77.66-.92,1.31-1.99,1.57-3.53.13-.3.13-.46,0-.61,0,0-.13,0-.4.15Zm-4.58-13.21c.26.16.52.16.79,0,.39-.15.92-.46,1.97-.92.78-.46,1.83-.92,3.01-1.54-.13,1.08-.53,2.31-1.18,3.69-.26-.15-.91-.15-1.83.15-.79.31-1.84.77-3.15,1.39.13-1.08.26-2,.39-2.77Z"/><path class="uuid-53fd6f43-fa43-4e7d-b6e1-7843a4828d86" d="m328.86,4.14c-1.31-.15-2.23.15-2.75.92-1.05,1.23-2.36,2.3-3.66,3.07-.66.31-.53.46.13.77,1.05.46,2.1.62,3.01.77.4,0,.66,0,.79.16v.61c-.27,1.69.13,3.38,1.04,4.92.26.46.4.92.4,1.23-.13.61-.66.46-1.44-.15-.53-.31-.92-.62-1.31-1.08,0-.46-.13-1.08-.39-1.38-.39-.61-.66-1.08-.79-1.69,0-.3-.13-.46-.39-.46-.39-.15-.65.31-.79,1.07-.13,1.38-.39,3.38-.39,6.3-.13,3.23-.39,5.53-.65,7.06-.52,3.07.13,5.68,1.97,7.83.52.46.78.62.91.62.26,0,.39-.16.52-.46,1.7-5.53,2.62-9.06,2.88-10.9,0-.15,0-.31-.13-.31l-.13.15c-1.31,3.23-2.62,5.37-4.06,6.45h-.13c-.13,0-.13-.62-.13-2,.13-1.69.52-3.53.92-5.68.26-1.69.52-3.22.65-4.92.4.93.92,1.85,1.57,2.92.65,1.38,1.18,2,1.44,2s.52-.15.79-.61c1.57-3.07,1.84-5.68.79-7.68-.52-1.53-.13-3.84,1.18-6.91.26-.46.26-.92,0-1.53-.13-.46-.79-.77-1.83-1.08Z"/><path class="uuid-53fd6f43-fa43-4e7d-b6e1-7843a4828d86" d="m347.73,28.4c-1.71-.92-3.54-2.3-5.24-4.3.13,0,.26-.15.39-.15,1.96-1.23,3.01-2.3,3.01-3.22,0-.61-.13-1.38-.26-2.15-.26-.61-.53-1.08-.79-1.23-.39,0-.65.15-.92.15-.13.15-.26.77-.26,1.69,0,.77-.66,1.69-2.09,2.77-.39.15-.66.3-1.05.46-.78-.46-1.7-.92-2.48-.92-.92-.15-1.97-.15-2.89.3-.39,0-.39.15-.26.46,1.18.77,2.22,1.38,3.15,1.69l.13.15c1.31.46,2.49,1.54,3.54,3.07,1.44,2.3,2.75,3.68,3.8,3.99.39.15.92.3,1.44.46,1.44.3,2.75.46,4.06.46.65,0,.92-.15.53-.62-.92-1.23-2.23-2.3-3.8-3.07Z"/><path class="uuid-53fd6f43-fa43-4e7d-b6e1-7843a4828d86" d="m363.06,12.44c1.44-1.54,2.49-2.31,3.14-2.46.26,0,.39-.15.65-.31.13-.3.26-.77.39-1.23,0-.62-.39-1.23-1.05-1.69-.91-.77-1.96-1.38-3.4-1.69-.13,0-.27-.15-.52-.15-.26-.15-.53,0-.53.15-.13.15-.13.31,0,.61.26.31.26.77.13,1.23-.13,1.38-1.18,3.07-3.14,5.38q-.13,0-.26.16c-.79.92-1.71,1.69-2.75,2.3-.39.15-.52.92-.13,2.46.13.31.13.46.39.46,0,.15.26,0,.66-.31,2.36-1.38,4.45-2.92,6.16-4.76l.26-.15Z"/><path class="uuid-53fd6f43-fa43-4e7d-b6e1-7843a4828d86" d="m378.39,5.07c-1.31-.31-3.01-.31-5.11.15-.39.15-.53.31-.13.77,2.23.77,3.54,1.69,3.93,2.76-.39.92-2.1,1.69-5.11,2.61,0,0-.14.15-.14.31,0,0,.14.15.39.15,1.31,0,2.62-.15,3.93-.31,1.18-.15,2.22-.15,3.27,0,.79.15,1.31.15,1.7-.15.27-.46.53-.92.66-1.53,0-.77-.13-1.54-.53-2.3-.52-1.07-1.44-1.99-2.88-2.46Z"/><path class="uuid-53fd6f43-fa43-4e7d-b6e1-7843a4828d86" d="m373.94,21.34c-.39-.31-.66-.46-.92-.46-.13,0-.26,0-.4.15-.13,0-.13.15,0,.46,0,.15,0,.3.13.61.26.61.66,1.38.92,2.3-1.7-.15-3.67,0-6.16.61-.66.15-.92.15-1.05,0,0,0,.13-.3.39-.77.79-1.08,1.44-2,1.96-3.07.53-.77,1.05-1.53,1.71-2.3,1.05-.92,1.05-2.15-.13-3.84-.52-.76-1.57-1.38-2.88-1.99-.27-.16-.39-.16-.53-.16-.13.16,0,.31.13.62.52,1.07.39,2.3-.26,3.99-1.31,3.07-2.62,5.37-4.06,7.22-.4.61-.66,1.07-1.05,1.38-.39.31-.79.46-1.05.62h-1.05c-.26,0-.52,0-.78.15-.39,0-.53.61-.26,1.38.39,1.23.79,2.31,1.31,3.22.27.62.65.77,1.18.62.53-.15,1.05-.62,1.7-1.08,2.23-1.68,4.98-2.92,8.65-3.84.26-.16,1.18-.46,2.88-.77.26.46.39,1.07.52,1.54.53,1.84,1.05,3.22,1.31,3.83.26.31.39.47.52.47s.39-.15.52-.77c.92-2.3,1.18-3.84,1.05-4.91-.39-1.38-1.84-3.07-4.32-5.22Z"/></g><g><polygon class="uuid-53fd6f43-fa43-4e7d-b6e1-7843a4828d86" points="371.08 40.45 375.46 40.45 375.46 50.51 380.96 50.51 380.96 40.45 385.33 40.45 385.33 39.4 371.08 39.4 371.08 40.45"/><path class="uuid-53fd6f43-fa43-4e7d-b6e1-7843a4828d86" d="m201.1,39.4h-.5l-5.37,11.11h2l1.25-2.35h5.37l1,2.35h5.25l-5-11.11h-4Zm0,7.62h-2.12l2.12-4.78.12-.16,2.13,4.95h-2.25Z"/><path class="uuid-53fd6f43-fa43-4e7d-b6e1-7843a4828d86" d="m219.1,43.13c-2.13-.49-3.25-1.05-3.25-1.7,0-.89,1-1.38,3-1.38,2.5,0,3.75.65,3.75,1.95,0,.25,0,.49-.13.81l2.37-.32c0-2.19-2-3.32-5.87-3.32-2,0-3.5.32-4.62.97-1.25.57-1.88,1.38-1.88,2.43,0,1.7,1.88,3,5.38,3.81,2.37.57,3.62,1.22,3.62,1.95,0,1.06-1,1.54-3,1.54-2.62,0-3.88-.73-3.88-2.11,0-.32.12-.73.25-1.22l-2.5.32v.65c0,2.19,2.25,3.24,6.62,3.24,2,0,3.63-.32,4.87-.97,1.12-.65,1.75-1.46,1.75-2.51,0-1.87-2.13-3.24-6.5-4.14Z"/><path class="uuid-53fd6f43-fa43-4e7d-b6e1-7843a4828d86" d="m409.96,47.84c-1.63,0-2.38.49-2.38,1.46,0,.89.75,1.38,2.38,1.38,1.5,0,2.25-.49,2.25-1.38,0-.97-.75-1.46-2.25-1.46Z"/><polygon class="uuid-53fd6f43-fa43-4e7d-b6e1-7843a4828d86" points="186.85 39.4 181.72 39.4 181.72 50.51 194.22 50.51 194.22 49.46 186.85 49.46 186.85 39.4"/><polygon class="uuid-53fd6f43-fa43-4e7d-b6e1-7843a4828d86" points="92.84 39.4 87.59 39.4 87.59 50.51 100.22 50.51 100.22 49.46 92.84 49.46 92.84 39.4"/><rect class="uuid-53fd6f43-fa43-4e7d-b6e1-7843a4828d86" x="102.97" y="39.4" width="5.25" height="11.11"/><polygon class="uuid-53fd6f43-fa43-4e7d-b6e1-7843a4828d86" points="147.6 43.86 143.35 43.86 143.35 39.4 138.22 39.4 138.22 50.51 143.35 50.51 143.35 45 147.6 45 147.6 50.51 152.85 50.51 152.85 39.4 147.6 39.4 147.6 43.86"/><rect class="uuid-53fd6f43-fa43-4e7d-b6e1-7843a4828d86" x="128.22" y="39.4" width="5.25" height="11.11"/><polygon class="uuid-53fd6f43-fa43-4e7d-b6e1-7843a4828d86" points="120.09 44.75 116.47 39.4 110.97 39.4 115.84 46.46 115.84 50.51 121.09 50.51 121.09 46.46 125.47 39.4 123.35 39.4 120.09 44.75"/><path class="uuid-53fd6f43-fa43-4e7d-b6e1-7843a4828d86" d="m171.72,39.4h-7.75v11.11h5.25v-4.54h2c4.75,0,7.13-1.14,7.13-3.33s-2.25-3.25-6.62-3.25Zm-.5,5.43c-.25.08-.63.08-.87.08h-1.13v-4.54h1.13c.25,0,.62,0,.87.08,1.25.16,2,.89,2,2.11,0,1.38-.75,2.11-2,2.27Z"/><path class="uuid-53fd6f43-fa43-4e7d-b6e1-7843a4828d86" d="m320.7,39.16h-.12c-5.38.08-8,1.95-8,5.68s2.62,5.92,8,5.92,7.87-1.95,7.87-5.84-2.5-5.76-7.75-5.76Zm1.88,9.65c-.38.73-1.13,1.05-2,1.05-1,0-1.75-.32-2-1.05-.37-.65-.5-1.95-.5-3.9s.12-3.16.5-3.81c.25-.73,1-1.06,2-1.06.87,0,1.62.33,2,1.06.25.65.5,1.95.5,3.81s-.25,3.25-.5,3.9Z"/><path class="uuid-53fd6f43-fa43-4e7d-b6e1-7843a4828d86" d="m334.71,47.84c-1.5,0-2.25.49-2.25,1.46,0,.89.75,1.38,2.25,1.38s2.37-.49,2.37-1.38c0-.97-.88-1.46-2.37-1.46Z"/><path class="uuid-53fd6f43-fa43-4e7d-b6e1-7843a4828d86" d="m344.08,47.67c-1.63,0-2.38.49-2.38,1.46s.75,1.46,2.13,1.46c-.25.49-.75.89-1.5,1.22v1.06c2.63-.49,4-1.71,4-3.41,0-1.13-.75-1.79-2.25-1.79Z"/><polygon class="uuid-53fd6f43-fa43-4e7d-b6e1-7843a4828d86" points="227.73 40.45 232.22 40.45 232.22 50.51 237.72 50.51 237.72 40.45 242.09 40.45 242.09 39.4 227.73 39.4 227.73 40.45"/><path class="uuid-53fd6f43-fa43-4e7d-b6e1-7843a4828d86" d="m395.83,39.4h-7.5v11.11h7.5c5.25-.08,7.87-1.95,7.87-5.52s-2.62-5.6-7.87-5.6Zm1.62,9.25c-.25.4-.88.73-1.62.89-.25.08-.5.08-.88.08h-1.37v-9.33h1.37c.37,0,.63,0,.88.08.75.16,1.38.4,1.75.89.37.73.62,1.95.62,3.65s-.25,3-.75,3.74Z"/><polygon class="uuid-53fd6f43-fa43-4e7d-b6e1-7843a4828d86" points="362.7 39.4 357.45 39.4 357.45 50.51 370.08 50.51 370.08 49.46 362.7 49.46 362.7 39.4"/><rect class="uuid-53fd6f43-fa43-4e7d-b6e1-7843a4828d86" x="245.09" y="39.4" width="5.25" height="11.11"/><path class="uuid-53fd6f43-fa43-4e7d-b6e1-7843a4828d86" d="m266.83,46.05c.12.49.25.81.25,1.06,0,.81-.37,1.46-1,1.95-.74.57-1.62.81-2.62.81-2.5,0-3.75-1.54-3.75-4.54,0-3.49,1.12-5.27,3.37-5.27,2.12,0,3.12.89,3.12,2.52v.73l2.25-.65c0-2.27-2-3.49-5.87-3.49-2.5,0-4.5.57-6,1.7-1.62,1.06-2.37,2.52-2.37,4.3,0,3.73,2.62,5.6,8,5.6,2.13,0,3.75-.32,5.12-.97,1.25-.65,1.87-1.54,1.87-2.6,0-.24,0-.49-.12-.73l-2.25-.41Z"/><path class="uuid-53fd6f43-fa43-4e7d-b6e1-7843a4828d86" d="m278.83,43.13c-2.25-.49-3.38-1.05-3.38-1.7,0-.89,1-1.38,3-1.38,2.5,0,3.75.65,3.75,1.95,0,.25,0,.49-.12.81l2.37-.32c0-2.19-2-3.32-5.87-3.32-1.87,0-3.5.32-4.63.97-1.25.57-1.74,1.38-1.74,2.43,0,1.7,1.74,3,5.25,3.81,2.5.57,3.63,1.22,3.63,1.95,0,1.06-1,1.54-3,1.54-2.63,0-3.88-.73-3.88-2.11,0-.32.13-.73.25-1.22l-2.5.32v.65c0,2.19,2.25,3.24,6.62,3.24,2,0,3.62-.32,4.88-.97,1.12-.65,1.74-1.46,1.74-2.51,0-1.87-2.12-3.24-6.37-4.14Z"/><path class="uuid-53fd6f43-fa43-4e7d-b6e1-7843a4828d86" d="m307.7,47.11c0,.81-.37,1.46-1.12,1.95-.62.57-1.5.81-2.5.81-2.5,0-3.75-1.54-3.75-4.54,0-3.49,1.12-5.27,3.37-5.27,2.13,0,3.13.89,3.13,2.52v.73l2.25-.65c0-2.27-2-3.49-5.87-3.49-2.5,0-4.5.57-6.12,1.7-1.5,1.06-2.25,2.52-2.25,4.3,0,3.73,2.62,5.6,8,5.6,2.12,0,3.75-.32,5-.97,1.25-.65,1.88-1.54,1.88-2.6v-.73l-2.26-.41c.13.49.25.81.25,1.06Z"/></g></g></g></svg>