<?xml version="1.0" encoding="UTF-8"?><svg id="uuid-9c4cfeda-983a-4411-a639-6f770e7027cc" xmlns="http://www.w3.org/2000/svg" viewBox="0 0 416.07 53.3"><defs><style>.uuid-239d03d1-0316-42bc-b333-e0cfa7ad3939,.uuid-4c728fa5-6576-47b3-9dea-f757cc80b145{fill:#fff;}.uuid-4c728fa5-6576-47b3-9dea-f757cc80b145{fill-rule:evenodd;}</style></defs><g id="uuid-1eb55ea2-2802-44a9-ab82-449a6bab82a3"><g><g><g><path class="uuid-239d03d1-0316-42bc-b333-e0cfa7ad3939" d="m68.46,32.55h.1c1.25,0,2.4.58,3.26,1.44.86.77,1.44,2.01,1.44,3.26h0c0,1.34-.58,2.49-1.44,3.36h0c-.86.86-2.01,1.34-3.26,1.34h-.1v-1.05h.1c.96,0,1.92-.38,2.49-1.05h0c.67-.67,1.15-1.53,1.15-2.59h0c0-.96-.48-1.92-1.15-2.59-.57-.67-1.53-1.05-2.49-1.05h-.1v-1.05Zm0,0h0v1.05h0c-.96,0-1.92.38-2.49,1.05h0c-.67.67-1.15,1.63-1.15,2.59h0c0,1.05.48,1.92,1.15,2.59h0c.58.67,1.53,1.05,2.49,1.05h0v1.05h0c-1.25,0-2.4-.48-3.26-1.34h0c-.86-.86-1.44-2.01-1.44-3.36h0c0-1.25.57-2.49,1.44-3.26h0c.86-.86,2.01-1.44,3.26-1.44h0Z"/><path class="uuid-239d03d1-0316-42bc-b333-e0cfa7ad3939" d="m70.86,39.94h-.77l-1.34-2.3h-.19v-.67h.19c.48,0,.77-.1.96-.29.19-.1.29-.29.29-.58s-.1-.48-.29-.58c-.19-.19-.48-.29-.96-.29h-.19v-.67h.29c.48,0,.96.1,1.34.38.29.29.48.67.48,1.15,0,.67-.38,1.15-1.15,1.44l1.34,2.4Zm-2.3-2.3h-1.34v2.3h-.77v-5.37h2.11v.67h-1.34v1.73h1.34v.67Z"/></g><path class="uuid-4c728fa5-6576-47b3-9dea-f757cc80b145" d="m40.56,19.51c.19-.1.29-.1.48-.19l19.18-7.77c-6.04-3.45-12.66-5.18-19.66-5.66v13.62h0Zm0,6.33v-2.11l.19-.1c8.73-2.59,16.3-5.56,23.59-8.82,8.15,9.78.38,20.81-23.68,25.31l2.11-15.25c-.67.38-1.44.67-2.21.96ZM21,7.72l13.62,10.74c1.82,1.15,3.93,1.82,5.95,1.05V5.9c-6.33-.38-12.94.29-19.56,1.82h0Zm19.56,16.01v2.11c-3.16,1.05-6.81,1.25-10.36.1l-1.82,14.77C9.68,39.17.67,32.07,0,25.55v-1.82c.58-6.23,5.27-10.07,11.79-12.66,5.66,5.27,11.89,9.88,19.18,13.04,3.45.96,7.1.38,9.59-.38Z"/></g><g><path class="uuid-239d03d1-0316-42bc-b333-e0cfa7ad3939" d="m178.89,31.27c-.27-.16-1.98-.16-4.89-.31-.53,0-.93,0-1.45.15h-2.51v-.15c.27-1.09.4-2.01.53-2.94.53-.16,1.19-.16,1.98,0,.27,0,.53,0,.79.16h.79c.27,0,.39-.16.53-.47,0-.16-.13-.46-.26-.77-.27-.93-.93-1.55-1.85-2.01-.13,0-.4-.16-.53-.31-.27,0-.66,0-1.06.31.13-.47.13-.62.13-.62.27-.61.27-1.08.27-1.7.39,0,.79-.16,1.19-.46.53-.31,1.06-.62,1.72-1.24.53,1.39,1.59,3.1,3.04,5.57.4.47.53.62.66.62.26,0,.53-.46.66-1.7.13-1.55.13-3.56.13-6.04-.52-5.88-.26-10.22.53-13.16v-.15c.26-.62.26-1.08,0-1.39-.93-1.09-1.98-1.7-3.17-2.01-.53,0-.92,0-1.32.46-.79.77-1.45,1.55-2.25,2.32-.26.46-.53.77-.79,1.08-.13.31-.13.46.27.77.13.16.4.16.53.16.4.16.66.16,1.06-.16.39-.16,1.05-.77,1.98-1.55.27-.31.53-.46.8-.31.13.31.26,1.24.13,3.1-.13,1.55-.13,3.72-.13,6.19.13,2.63.26,4.65.13,5.73,0,.46,0,.77-.13.93-.13,0-.27,0-.27-.16-.13-.16-.53-.46-1.19-1.08.53-.46.93-.93.93-1.39,0-1.08-.53-2.01-1.32-2.94-.27-.15-.13-.62.13-1.24.8-1.55,1.06-2.79.92-3.56-.13-.31-.26-.47-.52-.62-.4-.15-.66-.31-.93-.31s-.4,0-.66.15c-.13.31-.4.62-.93.93h-.13c.13-.47.13-.78.13-1.08-.26-.62-.53-.93-.92-1.24-.53-.31-.93-.62-1.32-.62-.53-.15-.66.16-.53.77.26,1.24.39,3.25.39,5.73,0,.31,0,.62-.13,1.09,0,2.17-.13,3.71-.26,4.64v1.86c-.13,0-.27,0-.27.15-.13-.15-.27-.15-.27-.15-.53-.15-.93-.15-1.19.31-.4.31-.53.46-.66.77,0,.16,0,.47.26.93.13.16.13.62.26,1.24-.13,0-.4.15-.53.15-1.19.31-1.98.62-2.51.77-.39.31-.66.47-.92.31-.13,0-.27,0-.27.16q-.13,0-.27.15c-.13.16-.13.46,0,.77.14.16.14.31.27.47.27.62.79,1.08,1.72,1.39.39.16.79.16,1.06-.15.53-.31.92-.62,1.32-.78-.13.78-.27,1.71-.53,2.64-1.19.16-2.38.47-3.57.77-.66.16-1.32.31-1.98.62-1.19.46-2.51.77-3.57.93-.53,0-.66.15-.53.46,0,.15.53.93,1.32,2.17.53.77,1.06.77,1.58.31.93-.62,1.98-1.09,3.17-1.55,2.25-.78,5.28-1.24,8.85-1.24h1.85c1.06.16,2.24.31,3.83.77,1.06.16,1.85.47,2.24.47.66.15.93,0,.79-.62-.4-1.55-1.19-2.63-2.37-3.25Zm-6.6-18.27h.79c.13,0,.4.16.4.31s0,.31-.13.62c-.39.77-.66,1.39-.66,1.85-.13,1.08.13,1.86.79,2.63-.13.47-.53.93-.93,1.4-.26.31-.53.62-.92.93,0-.47.27-2.94.66-7.74Z"/><path class="uuid-239d03d1-0316-42bc-b333-e0cfa7ad3939" d="m161.98,19.81c-.26,2.63-.79,4.95-1.72,6.81-.26.62-.39.92,0,1.24.53.62,1.32,0,2.25-1.55.53-.62.79-1.7,1.19-3.25.27-1.24.39-2.63.66-4.49.66-.31,1.32-.62,2.12-.93,0,.47.26.93.79,1.4.53.46.92.15,1.19-.93.52-2.17.79-3.56.66-3.87v-.16c-.27-.62-.93-1.08-2.11-1.7-.4-.15-.66-.15-.8,0-.13.16-.13.46,0,.62.4.93.53,1.7.4,2.32-.66.16-1.32.31-1.85.46.27-1.55.13-2.94-.13-3.87,2.24-1.08,3.3-1.86,3.43-2.01,0-.16-.13-.46-.26-.93-.27-.46-.53-.77-.79-.92-.14-.16-.27-.16-.4-.16,2.25-2.01,3.17-3.56,3.17-4.8-.13-1.08-.66-2.01-1.59-2.63-.26-.31-.52-.46-.79-.46-.26.15-.26.31-.26.77.13.62.13,1.4-.27,2.48-.52,1.55-1.72,3.09-3.17,4.49-.66.46-1.32,1.08-2.11,1.55l-.13.16s.27-.77.53-2.17c0-.77.53-1.85,1.72-3.25.13-.31.39-.47.66-.77.27-.46.66-.93,1.19-1.39.13-.16.26-.31.26-.62,0-.16-.13-.16-.39.16-.53.16-1.19.47-1.72.93-.53.31-1.19.62-1.72.93-.26.16-.53.31-.53.31-.13,0-.13-.15-.39-.31-.13-.31-.53-.46-.8-.77q-.26-.16-.39.31c-.13.62-.13,1.39-.13,2.17,0,.16-.13.62-.4,1.39-.13.62.27,1.55,1.32,2.79.4.31.66.62.66.62h-.13c-1.46.31-2.38.47-2.64.62-.53-.15-.53.31-.26.93.4.78.8,1.55,1.32,2.32.39.62.79.62,1.32.46.26-.31.79-.62,1.58-1.08-.13,1.24-.27,2.48-.4,3.72h-.13c-1.19.62-1.84.77-1.98.77v-.77c.14-.31,0-.78-.27-1.55-.26-.77-.66-1.08-1.06-1.23-.4-.16-.53,0-.53.31.13.46.13,1.08-.13,1.85-.26.78-.92,1.71-1.98,2.95-.26.31-.26.92-.13,2.17.26.93.53,1.55.92,1.55.53.31,1.19,0,1.85-.46,1.19-.93,2.25-1.71,3.3-2.48Z"/><path class="uuid-239d03d1-0316-42bc-b333-e0cfa7ad3939" d="m146.53,26.31c-.27-.16-.79-.16-1.45,0-1.32,0-2.91.47-4.89,1.24-.26,0-.66-.31-1.32-.92q-.13-.16-.27-.16v.16c-.13.77-.39,1.39-.66,2.01h-.13c-.13.31-.27.62-.27.77-.13.62,0,1.08.4,1.55,0,.15.13.15.13.31h.53c.27,0,.53-.31,1.06-.93.13-.46.53-.77.93-1.24,1.06,1.55,1.85,2.79,2.25,3.71v.16c-.13.31-.93.46-2.25.62-.93,0-1.85,0-2.64-.31-.27-.16-.53-.16-.79-.31-.4-.31-.66-.93-.8-1.55v-.93c.14-1.24-.39-2.16-1.45-2.79-.26-.16-.66-.16-1.32-.16h-.26c-.13,0-.27.31-.53.93-.27.16-.53.16-.8-.15-.26-.31-.53-.47-.92-.62-.27-.31-.4-.31-.27,0,.13.47,0,1.08-.26,2.01-.26.62-.4.93-.66,1.24-.13.31-.4.46-.66.62-.26,0-.39.46-.39,1.08,0,.77.13,1.39.27,1.85.13.47.27.62.39.62s.27,0,.4-.15c.13,0,.13-.16.13-.16.66-1.08,1.05-1.71,1.19-2.01.93-1.08,1.71-2.63,2.25-4.8.4.46.66,1.08.79,2.17.13,2.48,1.32,4.33,3.57,5.41h.13c2.11.77,3.96.92,5.55.47,1.19-.31,2.37-.78,3.43-1.55.26-.15.53-.46.53-.46,0-.16-.8-.93-2.38-2.02-.8-.61-2.11-1.7-4.1-3.4,1.32-1.23,2.38-1.85,3.17-1.7.4,0,.79.15,1.05.31.27.16.27.46.27.77-.14.93-.53,1.7-1.19,2.17v.31h.14c.92-.15,1.72-.46,2.38-.77,1.19-.47,1.85-.93,1.85-1.08.27-.31.13-.62-.13-1.08-.26-.61-.93-1.08-1.98-1.24Z"/><path class="uuid-239d03d1-0316-42bc-b333-e0cfa7ad3939" d="m129.89,7.43c.26-.31.53-.47.66-.47.66-.15.92-.77.79-1.85-.13-.62-.53-1.08-1.19-1.39q-.13-.16-.26-.16c-.93-.46-2.12-.77-3.57-.77-.26,0-.53,0-.53.16s0,.31.13.61c.39.47.26,1.71-.27,3.41-1.59,3.87-3.57,6.66-6.07,8.52-.53.31-.4,1.55.4,3.56.13.31.39.62.53.62.27,0,1.06-.77,2.51-2.32.4,2.79.4,5.73.13,8.52-.27,2.32-.13,4.18.39,5.73.4.77.66,1.24.93,1.24.13,0,.39-.31.66-.92.27-.62.4-1.4.53-2.32,0-3.41.53-8.21,1.32-14.24v-.93c-.52,1.39-1.05,2.78-1.58,4.18-.13.16-.13-.15-.4-.77-.14-.62-.4-1.24-.8-1.86h-.13c1.32-1.7,2.51-3.4,3.44-5.11.93-1.7,1.71-2.78,2.38-3.41Z"/><path class="uuid-239d03d1-0316-42bc-b333-e0cfa7ad3939" d="m114.17,16.41c-1.72-1.71-3.3-2.47-4.49-2.17.66-4.18,1.19-6.5,1.32-6.81.53-1.08.53-2.01.26-2.78-.26-.47-.66-.93-1.06-1.09-.4-.15-.79-.31-1.32-.31-.27,0-.66,0-1.06.31-.39.16-.66.47-.79.93-.13.31-.13.62-.13.62,0,.16.27.16.53-.16.39-.15.66-.31.66-.15.13.31.27.93.13,1.86,0,.15-.26,3.25-1.05,8.98h-.13c-.93.61-1.72,1.24-2.38,1.54-1.19.47-1.85,1.39-2.25,2.64v.62c0,.15.13.15.26,0,.26-.15.79-.31,1.85-.31.4,0,1.06-.31,1.98-.93-1.32,6.97-3.04,11.92-5.15,14.86-.66.77-1.19,1.39-1.85,1.86q-.13.16-.27.16c-.13.15-.13.31-.26.31,0,.15.13.15.26.15h.27c.66-.15,1.19-.46,1.85-.77,1.72-.93,3.3-3.09,4.62-6.04l.13.16c1.19,2.48,2.11,3.87,2.77,4.33.27.15.4.15.53.15.53,0,1.05-.46,1.72-1.55,1.59-2.01,2.51-5.88,2.91-11.45.13-1.7.27-2.79.4-3.25.13-.31.13-.78.13-.93.13-.31,0-.46-.4-.77Zm-2.64,1.08c-.13,4.18-.93,8.21-2.38,12.38-.13.16-.13.31-.27.46,0,.15-.13.15-.13.15q-.14.16-.4,0c-.79-.31-1.58-.92-2.11-1.86.13-.31.27-.77.53-1.08.79-2.63,1.45-5.41,2.11-8.51v-.31c.13-.46.13-.77.27-1.24.79-.62,1.45-.93,1.98-.93.27,0,.53.31.4.93Z"/><path class="uuid-239d03d1-0316-42bc-b333-e0cfa7ad3939" d="m99.9,33.9c.26.16.39.16.53.16,0,0,.13,0,.13-.16.26-.47.53-.78.79-1.24.53-1.24.93-2.63,1.32-4.03.13-.93.4-1.7.52-2.16.14-.47.27-.77.27-.93-.13-.77-.4-1.24-1.06-1.55-.26-.31-.66-.47-1.06-.62-.66-.31-1.19-.31-1.85-.31-.4-.15-.79,0-1.19,0-.26,0-.4.16-.66.16h-.26q-.13.15-.26.15s-.13,0-.26.16c0-.31.13-.47.13-.77.13,0,.26,0,.39-.15.26-.16.66-.31.93-.46.4-.16.79-.31,1.19-.31h.26c.4,0,.66-.15.66-.46q0-.16-.14-.31c.4-.31.79-.77,1.06-1.39,0-.31.13-.62.27-.93.26-.77.39-1.24.53-1.39.26-.16.4-.46.53-.93.13-.62,0-1.08-.26-1.55-.26-.46-.66-.77-1.06-1.08-.53-.31-1.19-.46-1.85-.31h-.13c-.26,0-.66,0-1.06.16.4-.46.79-1.08,1.19-1.86.13-.15.26-.47.39-.77.53,0,.92,0,1.45-.15,1.19-.16,1.85-.31,2.25-.77,0,0-.13-.46-.66-1.24-.53-.77-1.05-1.08-1.58-1.08-.26,0-.53,0-.66.15,0-.93-.4-1.7-.93-2.01-.13,0-.26-.16-.26-.16-.13,0-.4-.15-.53-.15.26-.16.4-.16.53-.16.53-.31,1.19-.47,1.85-.47h.13c.4-.15.79-.15,1.06-.31.26-.15.26-.31.26-.62-.26-.62-.66-1.24-1.45-2.01-.39-.16-.79-.16-1.19.16-.26,0-.53.15-.66.31-.4.16-.79.47-1.19.62-.26.16-.66.31-.93.46-1.45.62-2.77.93-3.96,1.24-1.59.31-3.17.47-4.62.31-.13-.16-.26-.16-.4-.16-.13-.15-.13-.46-.13-.77.13-.31,0-.31-.4,0-.39.16-.53.47-.53.93-.14,1.08.39,2.01,1.45,2.94.4.31.79.31,1.19.31,0-.16.13-.16.26,0-.39.47-.92,1.55-1.59,3.25-.4,1.24-.79,3.56-1.19,7.12-.53,5.73-1.85,9.13-3.7,10.06-.26.16-.52,1.09-.66,2.79,0,.46.13.77.26.93.4,0,1.32-.62,2.64-2.01.92-.92,1.72-2.32,2.38-4.02.93.93,1.45,2.01,1.45,2.94,0,2.32.53,3.56,1.45,4.18.53.16.79-.16.79-1.08-.13-1.55-.13-2.63-.13-3.56v-1.4c.4-.46.93-.77,1.45-.92.39-.16.79-.16,1.19,0,0,.77.27,1.39.66,2.01.27.15.13.47-.26.93-.4.15-.79.31-1.19.46-.26.16-.39.31-.39.31v.15h.39c1.32-.31,2.38-.62,3.04-1.08.26,0,.4-.15.53-.31.26-.16.53-.16.66-.31h.26c.13-.15.4-.15.53-.31.4-.15.27-.62-.13-1.24-.13-.31-.26-.46-.4-.46-.26-.31-.66-.47-.93-.31h-.53c-.79.62-1.06.47-.79-.62.27-.31.79-.47,1.32-.78.26-.15.53-.15.93-.31.13,0,.4-.16.53-.16.27,0,.4-.16.66-.16s.66,0,.79.16c.27.16.27,1.08.27,2.48-.13,1.7-.27,2.79-.53,2.94-.13.16-.26.46-.53.46-.27.16-.4.16-.66.31h-.53c-.26.16-.66,0-.93,0-.39-.16-.66-.31-1.05-.47h-.27v.31c.13.62.66,1.24,1.32,1.7.26.31.53.46.93.77.4.16.79.31,1.19.63l.39.15Zm-6.47-26.31c1.72-.62,3.04-1.08,3.96-1.4.13,0,.4-.15.53-.15.13.31.27.47.4.77.13.62.26,1.24.13,2.01h-.13c-.4.15-.66.15-.93.31-.79.31-1.45.62-1.98.77-.13-.46-.26-.77-.53-.93-.27-.31-.79-.62-1.45-.62-.26,0-.53-.16-.79-.16-.21,0-.42.1-.57.14.09-.15.19-.3.3-.45l1.06-.31Zm-1.45.91v.02c0,.31.26.62.79,1.24.26.16.4.47.4.62-.4.16-.79.31-1.19.47-.39,0-.66.15-1.06.15.21-.76.52-1.62,1.06-2.5Zm3.43,12.56c-.66.16-1.32.31-1.98.62h-.13c-.13-.47-.27-1.09-.27-1.55h.4c.92-.46,1.72-.77,2.38-.93-.13.47-.26.93-.4,1.86Zm-2.77-2.63c-.13-.31-.13-.77-.26-1.08,0-.16-.13-.16-.13-.31h1.19c.53,0,1.05-.16,1.45-.31.26,0,.4.15.66.31.13.15.13.31.13.46-.66.16-1.32.31-1.85.62-.13,0-.26.16-.39.16-.26,0-.53.15-.79.15Zm.79-3.25c-.53.32-.93.62-1.32.93-.13-.46-.13-.77-.13-.93.13-.77-.13-.77-.66,0-.66.78-.92,2.17-.53,3.88.27,1.24.66,2.32,1.32,3.09,0,0,0,.15.13.46.26.31.4.62.66.77h.53c.53-.15,1.05-.46,1.58-.62-.13.46-.26.93-.26,1.39-.53,0-.93.16-1.32.47-.66.31-1.32.93-1.98,1.86-.39-.62-1.19-.77-2.37-.93h-.26c.53-1.55.79-3.1.79-4.8.13-2.48.4-4.96.66-7.12.13-.31.13-.62.27-1.08,0,.15.13.3.26.62.27.31.53.46.66.31.79-.31,1.45-.62,1.98-.77,0-.15.13-.15.27-.15.13.46.53,1.08,1.19,1.39.53.15.79-.16.66-1.09,0-.61-.13-1.08-.13-1.39.79-.46,1.45-.62,1.98-.77.13,0,.4,0,.66.16q-.13,0-.13.15c-.13.31-.4.77-.53,1.24-.26.61-.66,1.24-1.05,1.85-1.19.31-2.12.77-2.91,1.08Zm3.96.78c.26-.15.66-.15.93-.31.53-.16.93-.16,1.19,0h.26c0,.15.13.15.13.46.13.47,0,1.4-.39,2.64-.13.16-.13.31-.27.62,0,.15-.13.31-.13.47h-.13c-.27.15-.4.15-.66.31h-.13c-.13,0-.4,0-.53.16v-1.7h.66c.4-.15.66-.15,1.06-.15,0,0,.13,0,.13-.15h.13v-.47c0-.15,0-.31-.13-.31v-.16c-.27-.16-.66-.31-1.06-.31h-.13c-.26,0-.53,0-.93.15-.26-.46-.39-.77-.66-1.08.27,0,.4-.15.66-.15Z"/><path class="uuid-239d03d1-0316-42bc-b333-e0cfa7ad3939" d="m129.89,18.57c.53.16,1.05,0,1.71-.31.39-.31.93-.47,1.45-.62-.79,4.18-.4,7.28,1.45,9.14.27.16.53.16.79,0,.79-.47,1.72-.78,2.65-.93,1.19-.31,2.64-.47,4.09-.31.66,0,.66-.31.13-1.24,0,0,0-.16-.13-.16.79-1.08,1.32-2.01,1.58-2.63.53-1.39.79-2.02.79-2.17,0-1.08-.4-2.01-1.06-2.78-.93-.78-2.25-1.08-3.83-.62-.66.15-1.19.46-1.58.62-1.72.77-2.77,1.7-3.44,2.93,0-.46-.26-1.23-.66-2.16,1.32-.77,2.77-1.24,4.1-1.7,3.43-1.08,6.47-1.4,9.38-.93.53.16.79.16.92,0,0,0,.13-.31.13-.62-.13-.46-.53-.92-1.06-1.54-.79-.93-1.46-1.09-1.98-.78-.26.16-1.19.31-2.64.31-.39.16-.93.16-1.45.31,1.19-1.08,1.85-1.7,2.11-2.17,0-.47-.53-1.08-1.59-1.86-.26-.16-.53-.31-.79-.31.4-.31.93-.62,1.32-.93.79-.46,1.32-.93,1.32-1.08.13-.46-.13-1.08-.66-2.01-.13-.47-.4-.62-.8-.77-.26,0-.52.16-.92.16,0-.31,0-.62-.13-.93-.13-.77-.66-1.24-1.45-1.7-.39-.31-1.06-.46-1.71-.62h-1.32c-.27,0-.27.16-.13.47.79.77,1.32,1.4,1.32,1.86,0,.16,0,.31-.13.31-.13.16-.53.46-1.19.77-.14,0-.14.16-.14.16-.13.15,0,.15.27.15.4.16.79.16,1.32.31h.53c.13,0,.39,0,.53.16l-1.05.16c-2.77.77-4.23,1.08-4.36,1.08s-.39,0-.39.15c0,0,0,.31.13.62.66,1.4,1.19,2.01,1.71,2.32.4.15,1.06-.16,2.12-.78h.39q0,.16-.13.31c-1.45,1.4-2.38,2.01-2.64,2.17-.93,0-1.45.93-1.59,2.79v.46c.13,0,.26,0,.53-.16,1.32-.62,2.78-1.55,4.23-2.94.13-.16.39-.31.53-.46.39-.31.66-.62,1.06-.93h.53v.47c0,.31-.79,1.24-2.11,2.63-.27.31-.66.77-.93,1.08-2.24.62-4.62,1.55-7,2.78h-.13c-.27.16-.53,0-.53-.31s-.14-.31-.4.15c-.4.46-.53.93-.53,1.39s.13.78.53,1.08c.26.15.66.15.93.15Zm4.62,1.86c.53-.47,1.19-.77,1.85-.93.27,0,.53-.15.93-.31.26-.15.39-.31.66-.46.66-.31,1.58-.62,2.64-1.08h.53c.13.15.27.47.27.93.13,1.7-.13,3.1-.79,4.49-.66,0-1.45.31-2.11.63-.13,0-.4,0-.53.15-1.32.31-2.38.46-3.3.31,1.06-.62,2.11-1.08,3.3-1.55l.39-.31c.4-.31.93-.47,1.59-.77.26,0,.39-.15.53-.31.13-.31,0-.46,0-.62-.27-.31-.39-.46-.79-.62-.27-.15-.66-.31-1.06-.31,0,0-.26.16-.66.31-.27.16-.4.31-.66.31-.79.31-1.32.47-1.58.31q-.27-.15-.27.47c.27.93.39,1.55.39,1.55,0,.15-.13.15-.39.31-.53.46-.79.78-.93.78-.13-.78-.13-1.86,0-3.25Z"/><path class="uuid-239d03d1-0316-42bc-b333-e0cfa7ad3939" d="m277.8,22.44c-.66-.62-1.58-1.08-2.37-1.24-.27,0-.53,0-.53-.16s.13-.62.66-1.39c.93-1.09,1.46-2.17,1.98-3.25,0-.31-.13-.93-.66-1.71-.66-.93-1.72-1.39-3.44-1.54-.39,0-.52,0-.52-.16-.14-.15-.14-.46.13-.62,1.72-2.47,3.04-5.11,3.7-8.05.26-.62-.14-1.24-.8-1.7-1.85-1.4-3.56-1.55-5.15-.62-.66.31-.79.62-.79.77s.27.16.93,0c1.58-.16,2.38.46,2.38,1.7-.27,2.32-1.59,5.42-4.09,8.98-.4.77-.79,1.24-1.06,1.39-.13.16-.4.62-.4,1.39-.13.62-.13,1.24,0,1.71,0,.31.13.62.13.93.13.46.4.61.53.46,2.37-1.7,4.09-2.78,5.28-3.1.13-.16.27-.16.39,0,.13.16,0,.47-.39,1.24-1.58,3.25-2.9,4.8-4.22,4.95-.79,0-1.06.93-1.06,2.79,0,.47,0,.93.26,1.4.26.62.53.92,1.06.62,1.72-.93,2.9-1.7,3.57-2.32.52-.62,1.32-.93,2.24-1.08.66-.15.93-.15,1.19.16.52,1.08.52,2.48-.27,4.33-.26.46-.66,1.39-1.19,2.63-.66.62-1.45.62-2.37.46-.93-.46-1.85-.93-2.64-1.85-.4-.31-.53-.16-.4.46.26.93.79,1.86,1.59,2.48,1.05.93,1.71,1.7,2.24,2.79.39.46.92.46,1.85,0,1.98-1.86,3.17-4.18,3.57-7.12.13-.47.13-.77.13-1.09.13-.31.13-.46.26-.62.13-.47.13-.77.13-1.08s-.13-.62-.4-1.08c-.27-.46-.66-1.08-1.46-1.86Z"/><path class="uuid-239d03d1-0316-42bc-b333-e0cfa7ad3939" d="m267.77,5.73v-.15c-.13-.47-.53-.78-1.19-1.24-.79-.31-1.98-.62-3.43-.62-.26,0-.4,0-.53.15,0,.16.13.31.27.47.66.77,0,2.94-1.98,6.65-1.58,2.48-3.04,4.33-4.62,5.42-.66.31-.53,1.55.39,3.72.27.46.53.77.66.77.26,0,1.05-.93,2.51-2.63.66,1.85.92,2.78.92,2.94-.13,2.94-.39,5.73-.79,8.82-.27.62.4,2.01,1.98,4.02,0,.31.14.31.4.31.13,0,.27-.15.39-.61.27-1.86.53-5.73.93-11.46,0-1.08.26-2.94.79-6.04.13-.16,0-.31,0-.31-.66,1.55-1.32,3.25-1.85,4.8-.14,0-.27-.16-.4-.47-.26-.93-.79-1.86-1.72-2.79,1.32-1.85,2.64-3.87,3.56-5.88,1.32-2.48,2.38-3.87,3.04-4.18.26-.16.53-.47.66-.93v-.78Z"/><path class="uuid-239d03d1-0316-42bc-b333-e0cfa7ad3939" d="m210.85,16.25v-.46c0-.31-.13-.62-.52-.93-.27-.16-.53-.31-.8-.31-.39-.31-.79-.31-1.32-.47h-.39c0,.16,0,.31.13.31,0,.31.13.46,0,.77v.16c-.8-.16-1.32-.31-1.72-.31.14-.31.27-.62.53-.77.53-.93.92-1.55,1.45-2.17.4.47.93.77,1.32,1.09,1.45.92,2.51.92,3.3,0,.93-1.24,1.45-2.64,1.59-4.34.13-1.24.26-2.32.53-3.25,0-.47,0-1.08-.27-1.55-.79-1.39-1.72-2.17-2.91-2.32-.39,0-.79,0-1.19.31-.4,0-.79.31-1.06.62-.13.16-.13.31-.26.46-.26.45-.76.9-1.63,1.77-.4-1.03-1.18-1.62-2.34-1.92-.53-.16-1.06-.16-1.72.15-.93.31-1.98,1.08-3.3,2.32-.79.46-1.45.93-1.98,1.24,0-.15-.13-.31-.27-.47-.66-.92-1.59-1.85-2.64-2.32-.4-.15-1.19.16-2.51.93-.53.47-1.05.93-1.72,1.39-.26.31-.26.62,0,.77.26.47.79.62,1.32.47.13,0,.26,0,.39-.16.4-.16.93-.31,1.45-.62.27,0,.53,0,.66.15.27.31.27,1.7.14,4.18-.14.93-.26,2.01-.26,3.25-.4-.47-1.06-.77-1.98-.77-.13,0-.39-.16-.53-.16-.26,0-.52.16-.79.16.13-.47.27-.92.4-1.39.27-.93.27-1.55-.13-2.17-.53-.93-1.19-1.55-2.11-1.7-.27,0-.66,0-.8-.31-.13-.15-.26-.15-.39-.15v.77c.13.62.27,1.24.53,1.85.26.47.39,1.71.39,3.4-.13,7.12-.79,11.77-1.71,14.09-.4,1.24-.66,1.86-.79,1.86-.14,0-.27,0-.4-.15-.13-.31-.26-.16-.4.31v2.63c0,.46.13.77.27.93.13,0,.39-.16.79-.46,1.98-2.16,3.17-4.95,3.57-8.67.39.47.66.62.79.77.4-.15.79-.31,1.06-.62l.27-.46c.66-.78,1.45-1.7,2.11-2.48.14,4.8.14,7.27-.13,7.43-.13.16-.79-.31-1.98-1.09-.39-.31-.93-.62-1.45-1.08-.26-.16-.39-.16-.39-.16-.14.16,0,.16,0,.31.79,1.24,1.32,2.16,1.85,3.09.66.77,1.06,1.55,1.45,2.16.66.62,1.19,1.39,1.72,2.17.27.47.53.78.66.78.26,0,.53-.62.66-1.86.13-1.85.13-4.49,0-7.89-.13-2.17-.26-4.18-.26-6.19.4-.46.79-1.08,1.19-1.7.13,0,.13-.16,0-.16,0-.16,0,0-.13,0-.39.31-.79.47-1.06.78,0-4.18.4-7.74,1.19-10.37.53.31,1.06.46,1.58.77.4,0,.66.46.79,1.08,0,.62-.13,1.39-.53,2.16-.4.31-.66.47-.79.47-.27.15-.4.46-.13.93.13.61.4,1.24.79,1.7.26.47.53.47.79.16.4-.62.79-1.08,1.06-1.55.26.31.66.93,1.19,1.55-.93,0-1.85.31-2.77.77-.4.15-.66.31-.53.46,0,.16.13.16.66.16.66-.16,1.45-.16,2.64,0-1.19,1.55-3.04,3.41-5.42,5.57-.39.31-.26.46.4.46,1.59-.15,3.3-1.39,5.55-4.02.39-.62.92-1.08,1.32-1.7.66.15,1.32.31,1.98.62-1.06,1.39-2.25,2.48-3.3,3.1-.27.31-.53.46-.8.62-.53.16-.53,1.24,0,2.94,0,.46.14.62.4.62,0,.16.26,0,.4-.16.13,0,.26-.16.53-.31,1.32-1.24,2.51-2.63,3.56-4.02.4,0,.53,0,.66.31,0,.31,0,.62-.13.93-1.59,2.48-3.17,4.18-4.62,5.26-.14.16-.27.16-.4.31-.66.46-1.06,1.08-1.06,1.85,0,.31.13.78.13,1.24s.13.62.13.77c.13,0,.27-.16.53-.16.26-.31.39-.46.66-.62.66-.46,1.32-.93,1.85-1.4.66-.62,1.72-1.08,3.3-1.55.26-.15.39,0,.66,0,.27.31.13.62-.26,1.09-2.25,2.01-4.09,3.56-5.55,4.8-1.46,1.08-2.51,1.86-3.44,2.32-.79.15-1.85.31-2.91.62h-.13q0,.16.13.31c1.72.77,3.57.93,5.42.31l.93-.46c1.45-.78,2.24-1.24,2.37-1.4,1.06-.77,2.11-1.86,3.17-3.09.13-.16.26-.31.39-.62.8-.77,1.45-1.55,1.98-2.01.53-.47.8-.77.93-1.09,0-.15.13-.46,0-.92,0-.78-.27-1.4-.93-2.01-.53-.62-1.05-.78-1.72-.78h-.27v-.15l.4-.62c.4-.77.53-1.55.26-2.48-.13-.62-.4-.93-.66-1.24q-.13-.16-.26-.31c-.4-.16-.66-.31-.93-.31.27-.31.53-.62.66-.93.13.16.39.16.53.31,1.58.62,3.17,1.55,4.62,2.48,2.11,1.08,3.3,1.55,3.7,1.24.13,0-.13-.62-.53-1.7-.93-1.86-3.04-3.25-6.48-4.18Zm-3.43-10.06c.4-.15.79-.31,1.19-.46.39-.15.66-.31.92-.46.4-.31.66-.47.93-.77.39-.47.79-.77,1.32-1.08,0,0,.13,0,.26.15,0,0,.13.31.13.78.13,1.39.13,2.94-.13,4.33,0,1.08-.26,1.85-.53,2.48-.13.15-.26.31-.53.31-.4.16-.93.16-1.45.16-.26,0-.53-.16-.92-.16.13-.31.53-.62.92-1.24.4-.31.8-.93,1.45-1.39v-.62c-.13-.62-.53-1.08-1.05-1.39-.13,0-.27,0-.4-.15h-.26c-.13,0-.26.15-.4.46,0,.31-.66,1.55-1.98,3.87.26-2.01.39-3.72.53-4.8Zm-16.25,9.45c.93,0,1.45.15,1.72.46v.16c.13.16.13.32,0,.47q0,.15-.13.31c-.66,1.39-1.32,2.32-1.85,2.94,0-1.39.14-2.94.26-4.33Zm1.72,4.95c-.79.31-1.32.62-1.45.62-.26,0-.39-.16-.53-.16v-.16l.14-.15c.66-.93,1.32-1.7,1.85-2.32.66-.62,1.32-1.08,1.98-1.55,0,.93,0,1.86.13,2.94l-2.11.77Zm8.32-12.69c.79-1.24,1.72-2.16,2.38-2.63.13-.16.26-.31.39-.31.26-.15.53-.15.66-.15s.26.15.26.47v1.7c-.26.16-.66.47-1.32,1.24-.27.31-.66.62-1.06,1.08-.13-.46-.66-.93-1.32-1.4Zm3.43,4.8s-.13.15-.26.31h-.79c-.4.16-.93.16-1.46,0,.53-.77,1.06-1.55,1.46-2.32.53-.93,1.05-1.85,1.45-2.63,0,1.55-.14,3.09-.4,4.64Z"/><path class="uuid-239d03d1-0316-42bc-b333-e0cfa7ad3939" d="m312.8,3.09c-1.06.31-1.85.62-2.64.77-.79.16-1.98.31-3.57.78.27-.93.13-1.7-.27-2.47,0-.16-.13-.16-.13-.31-.26-.47-.53-.93-.92-1.08-.27-.15-.4-.15-.53-.31-.4,0-.66-.15-.79,0h-.26c-.53.16-.79.47-1.19,1.08-.13.47-.13.62.26.47.27,0,.53,0,.93.31.13.31.39.62.39.93.14.31,0,1.08-.39,2.17-3.04.77-5.15,1.54-6.6,2.01-1.58.77-3.57,1.24-6.08,1.4-.53,0-.66.46-.26,1.39.39.93.93,1.55,1.45,1.86.53.47.93.47,1.19.31,3.17-1.39,6.08-2.63,8.72-3.56-3.3,6.5-5.94,10.22-8.19,11.14-.66.16-1.45.31-2.24.47-.8,0-1.59,0-2.38-.31-.13-.16-.13,0-.26,0v.31c1.19,1.55,3.04,2.17,5.68,1.86,1.05-.15,1.98-.62,3.04-1.24.53-.31,1.06-1.24,1.85-2.48.27-.62.66-1.24.93-1.7,0,1.55,0,2.79-.13,3.71-.13,1.09-.27,2.63-.4,4.65,0,2.01-.13,3.41-.26,4.34-.14,1.54.13,3.09.92,4.49,0,.16.14.31.27.46.13.47.39.62.53.62s.26-.15.39-.47c.4-.77.4-2.32.4-4.95-.13-.93-.13-1.86-.13-2.78.53.92,1.06,1.7,1.59,2.47.26.62.66,1.08,1.05,1.7.4.62.93,1.24,1.32,1.7l.26.31c1.06,1.4,1.85,2.48,2.12,3.25.13.77.53.77.92.31.66-.77,1.32-2.48,1.85-4.96.13-.46.26-2.48.26-5.73,0-8.05-.39-12.54-1.05-13.46q-.13,0-.13-.16c-1.05-1.24-2.12-1.7-3.17-1.55-.26,0-.53.15-.79.31-.53.31-1.05.77-1.59,1.55-.4.47-.79.93-1.05,1.55-.13.31-.27.46-.4.77-.26-.62-.53-.93-.79-1.39.4-.78.79-1.39,1.19-2.01.39-.77.66-1.55,1.05-2.17.26-.62.53-1.24.79-1.7l.79-.31c.39,0,.66-.16,1.06-.31.93-.16,1.45-.16,1.45,0s-.27.31-.66.62c-1.18.77-1.72,1.39-1.72,1.55.13.16.26.16.4,0,1.19-.46,2.64-.93,4.36-1.24,1.58-.31,2.77-.47,3.3-.31.53.15.92.15,1.06,0,.26-.16.26-.47.39-.93,0-.62-.53-1.55-1.45-2.63-.4-.46-1.05-.93-1.72-1.08Zm-4.75,28.8c-.26,0-.53,0-1.05-.47-.27-.16-.4-.31-.66-.46-.53-.47-1.05-.93-1.59-1.55-.26-.15-.4-.31-.52-.46.13,0,.26-.16.52-.16.53-.31,1.06-.46,1.59-.93.27,0,.53-.31.79-.46.66-.46,1.05-.77,1.32-.77-.13,3.25-.27,5.1-.4,5.26Zm-4.62-15.64c0-.16.14-.16.27-.16.13-.15.39-.31.66-.31.13-.15.27-.15.4-.15.4-.31.93-.62,1.59-1.08.13-.16.39-.31.66-.47.13-.15.39-.15.66-.15.26.15.39.46.39.92.27,3.56.4,6.97.4,10.22-.4-.46-.79-.77-1.45-.93-.27,0-.53,0-.66-.15-.26-.31-.39-.62-.13-1.24l.13-.31c.27-.77.53-1.39.93-2.01.13-.47.27-.93.13-1.39-.26-1.09-.66-1.71-1.06-2.01q-.13-.16-.26-.31c-.26,0-.53-.15-1.06-.15q-.13,0-.26.15c-.26,0-.66.31-1.05.62-.27.16-.4.31-.66.47.13-.47.26-1.08.39-1.55Zm-.79,4.18c.4-.62.66-1.08,1.06-1.24.26,0,.39,0,.66.31.13.32.13.78,0,1.24-.26,1.08-.53,1.86-.66,2.47v.47c0,.46.26,1.08.79,1.85.13.15.13.31.26.31.26.62.4,1.08.4,1.24,0,0-.13.16-.13.31l-.26.31c-.26.31-.52.62-.79.93-.13-.16-.26-.31-.26-.46-.53-.62-1.06-1.24-1.59-2.01.13-2.63.27-4.49.53-5.73Z"/><path class="uuid-239d03d1-0316-42bc-b333-e0cfa7ad3939" d="m237.01,11.61c-.93,2.79-.79,4.8.39,5.88.13.31.39.31.53.31.39-.15.53-.47.79-1.24.4-1.86.66-3.25.93-4.18.53-1.39.53-2.47.13-3.25-.26-.62-.79-1.24-1.85-1.7-.26-.16-.53-.16-.92-.31-.53-.16-.79-.16-.93,0-.13.16-.13.47,0,.77.66,1.71,1.06,2.94.93,3.72Z"/><path class="uuid-239d03d1-0316-42bc-b333-e0cfa7ad3939" d="m243.87,26.63l-.13-.16.13-.16c.66-1.24,1.19-2.63,1.71-4.18.4-1.24.66-2.01.92-2.48.27-.77-.13-1.7-1.45-2.48-.13-.15-.39-.31-.53-.31.53-.46,1.45-1.24,2.77-1.86.4-.31.66-.62.79-1.08-.13-.31-.4-.77-.79-1.09-.39-.46-.92-.61-1.19-.61-.39,0-.66,0-.93-.31-.39-.62-.13-2.32.79-5.26.53-1.55-.26-2.94-2.11-4.33-.26-.15-.4-.31-.53-.31s-.4,0-.93.16c-.39.15-.66.46-.79.92-.14,0-.67,1.24-1.85,3.41-.13,0-.13.15-.13.31h.39c.53-.15,1.32-.47,2.11-.62.13.16.27.16.27.16.27.47.27,1.4,0,2.94-.39,1.86-.39,3.09.13,3.71.79.93,1.19,1.4,1.32,1.7,0,.78-1.58,2.17-4.49,4.49-.53.16-1.06.16-1.45.31-.4.16-.66.16-.66.32-.13,0-.26.31-.26.77-.13.62-.13,1.24.13,1.86.13.47.39.77.52.77,0,.15.13.15.26.15.26-.15.39-.15.66-.31,1.72-.77,2.9-1.54,3.83-2.16.13-.15.4-.15.53,0,.13,0,.13.31,0,.62-.39,1.24-.92,2.63-1.45,3.71-1.19-.77-2.37-1.08-3.56-1.39-1.32-.31-2.77-.31-4.09,0h-.26c-.4-6.97-.26-12.54.66-16.56.13-.46.13-.77.27-1.08.39-.77.39-1.54.13-1.85-.13,0-.13-.16-.13-.16-.92-1.08-1.98-1.86-3.04-2.16-.39-.16-.79,0-1.32.16-.53.46-.93.77-1.45,1.24-.53.46-1.05.93-1.45,1.55-.26.31-.26.47,0,.77.53.46.93.46,1.45.46q.13,0,.26-.15c.26,0,.92-.31,1.72-.77.27-.16.53-.16.53,0,.26.31.26,1.7.13,4.49-.13,1.08-.13,2.17-.26,3.25-.53-.77-1.32-1.24-2.38-1.24-.13,0-.26,0-.4.16-.39,0-.79,0-1.05.31.13-.78.27-1.55.53-2.17.27-.93.13-1.7-.13-2.32-.66-1.08-1.46-1.7-2.38-1.7-.4-.16-.66-.16-.93-.46-.26-.16-.39-.16-.53-.16,0,0,0,.31.13.93.13.62.26,1.08.66,1.86.27.47.27,1.7.27,3.72-.13,7.74-.66,12.69-1.59,15.17-.39,1.24-.66,1.86-.79,1.86-.13.16-.26,0-.4-.16-.13-.15-.26,0-.26.47-.13.78-.13,1.71,0,2.32,0,.62,0,.77.13.93.13.16.4,0,.79-.47,1.19-1.39,2.25-3.09,3.04-5.26l2.9,3.56c1.98,2.48,3.17,3.87,3.43,4.18.53.62.8.93.92.93.27,0,.4-.62.53-1.86,0-.77.13-1.7.13-2.78,1.32,1.08,2.77,1.39,4.22,1.08.53,0,.93-.16,1.45-.31.92-.31,1.85-1.09,2.9-2.48,1.46,1.08,2.9,2.32,4.36,3.56,1.32,1.24,2.51,2.17,3.57,2.78.53.31.92.31,1.05.31.26-.16.26-1.08-.13-2.64-.66-2.01-3.04-4.17-7.26-6.5Zm-12.8-11.3c0,.77,0,1.85.13,3.09-.92.47-1.45.77-1.85,1.08-.26,0-.53.16-.66.16-.4.16-.79.31-1.19.31-.14,0-.27,0-.27-.15-.13,0,0-.16,0-.32.53-.77.93-1.39,1.45-2.01.79-.93,1.59-1.7,2.38-2.17Zm-4.23-1.24c.93.16,1.45.31,1.72.62,0,0,.13.16.13.31v.31c0,.16-.13.31-.13.46-.66,1.39-1.19,2.32-1.85,3.1,0-2.32.13-4.03.13-4.8Zm4.49,13.62c0,.93-.13,1.4-.26,1.4-.13.15-.93-.31-2.38-1.08-.79-.47-1.59-1.08-2.64-1.7.27-1.7.53-2.94.53-3.56.13.31.4.62.66,1.09.13.16.4.31.66.31s.53-.15.79-.46v-.16c.66-.93,1.19-1.85,1.98-2.78.13-.31.27-.47.53-.62.13,3.56.26,6.04.13,7.58Zm6.6,1.55c-.79.47-1.71.62-2.77.47-.26,0-.4,0-.79-.15h-.66v-4.49q-.13-.15,0-.15c1.45.31,2.91.77,4.22,1.39.79.31,1.45.77,2.11,1.24-.66.78-1.32,1.4-2.11,1.7Z"/><path class="uuid-239d03d1-0316-42bc-b333-e0cfa7ad3939" d="m284.8,16.25c-.66-.46-1.98-.77-4.1-.77-.52,0-.92.16-1.32.31h-.13c-.13.15-.27.31-.27.46,0,.32.13.47.27.78h.13c.13.15.4.31.66.46,1.06.47,2.11,1.08,3.03,1.86,1.46,1.08,2.51,1.55,2.91,1.4.26-.31.26-.78,0-1.55-.4-1.55-.79-2.47-1.19-2.94Z"/><path class="uuid-239d03d1-0316-42bc-b333-e0cfa7ad3939" d="m415.97,6.34c-.4-1.7-1.32-2.79-2.77-3.25-2.38-.92-5.42-.46-9.11,1.24-.66.31-1.19.62-1.85,1.08-.53.16-.92.46-1.45.77-.14.16-.27.16-.27.31s.13.15.53.15c.27-.15.66,0,1.19.15.13,0,.4.15.66.15.39.16.79.31,1.19.47,1.05.16,2.11,0,3.03-.62,1.98-1.24,3.7-1.55,5.15-1.24,0,0,.13,0,.26.15.13.16.26.62.13,1.08-.4,3.25-.66,6.96-.79,10.83-.13,4.64-.13,9.14-.13,13.47,0,.47,0,.62-.13.62,0,.16-.14.16-.27.16-1.32-.16-2.91-.47-4.62-1.08-.14-.16-.27,0-.27,0,0,.16,0,.31.14.46,1.32,1.7,2.77,3.25,4.62,4.33.92.62,1.58,1.09,1.98,1.39.39.47.66.78.92.93.13.16.4.16.53,0,.39-.77.53-2.17.26-4.49-.66-10.83-.39-19.19.8-24.61,0-.62.13-.93.26-.93.13-.31.13-.77,0-1.55Z"/><path class="uuid-239d03d1-0316-42bc-b333-e0cfa7ad3939" d="m398.13,16.56c.66.15,1.06.15,1.45-.16.93-.46,1.72-.93,2.64-1.39.53-.16,1.19-.46,1.85-.77.79-.31,1.58-.47,2.37-.77.8-.31,1.19-.92,1.19-1.7-.14-.77-.79-1.24-1.98-1.39-.53,0-1.05,0-1.58.16-.53.16-1.19.31-1.85.62-.27.15-.53.31-.79.31-2.51,1.24-4.23,1.71-5.28,1.55-.39-.15-.53,0-.39.47.39,1.7,1.19,2.78,2.37,3.1Z"/><path class="uuid-239d03d1-0316-42bc-b333-e0cfa7ad3939" d="m406.19,27.09c-.13-.31-.13-.62,0-.93-.13-.46.4-1.7,1.58-3.87.4-.62.13-1.55-.79-2.63-1.05-1.09-1.98-1.7-2.9-1.7-.4,0-.66.16-1.06.31-.26.15-.52.31-.79.46-1.72,1.09-3.17,1.85-4.76,2.63-.26-.47-.52-.78-.93-1.08-.53-.78-.79-1.24-.66-1.7.27-.31.27-.46.13-.46,0-.16-.13,0-.4.31-.39.31-.52.77-.66,1.4,0,.62,0,1.39.26,2.16.39,1.39.53,2.48.53,3.25-.14.93,0,2.01.39,2.94.4,1.08,1.06,1.86,1.72,2.48.66.46,1.06.62,1.32.62s.39-.16.53-.62c.13-.16.13-.46,0-.93.79-.31,1.59-.47,2.51-.77.53,0,1.19-.16,1.85-.31h2.11c.26,0,.4-.31.4-.77,0-.15-.14-.46-.4-.77Zm-2.38-4.65c-.26.93-.66,1.7-1.06,2.48-.13.15-.26.46-.53.62-.39.31-.92.46-1.45.77-.66.16-1.19.31-1.85.31-.26-2.01-.53-3.1-.53-3.25.92.16,2.24-.31,3.83-1.08.27-.15.53-.31.66-.47.39-.15.79-.15.92-.15.13.15.13.31,0,.77Z"/><path class="uuid-239d03d1-0316-42bc-b333-e0cfa7ad3939" d="m342.65,27.09c-.66.62-1.32,1.24-1.84,1.86-1.32,1.08-2.38,2.01-3.44,2.63-.13.15-.26.15-.39.15-.14-.15-.27-.31-.27-.62-.13-4.33,0-8.05.4-11.3.26.15.39,0,.66,0,.39-.32,1.45-.77,3.04-1.4.4-.31,1.06-.46,1.58-.77.13.15.26.31.39.62.13.31.53.31,1.06,0,.79-.47,1.71-2.48,2.64-6.04.53-1.86,1.06-3.41,1.72-4.65.39-.47.39-.77.13-1.24-1.06-2.01-2.38-3.25-3.83-3.87-.93-.16-2.11,0-3.7.62-.27.16-.53.16-.8.31-.79.15-1.71.77-2.77,1.86-.4.31-.53.62-.53.92s.27.47.66.31h1.45c.66.15,1.19,0,1.98-.16.13-.16.26-.16.53-.31,1.58-.77,2.64-.93,3.17-.46.26.15.26.61.13,1.54-.13.77-.26,1.55-.4,2.48-.27-.47-.4-.62-.66-.77-.53-.15-1.45,0-2.77.46l-.4.16c-1.19.46-2.25.62-3.17.93v-.77c0-.62-.13-.93-.4-1.08-.13,0-.39.31-.66.62-.26.62-.53,1.08-.53,1.55-.13,2.01-.4,5.11-.79,9.14-.4,5.11-.53,8.66-.27,10.52.53,1.7,1.19,2.94,2.12,4.02.79.78,1.45,1.24,1.98,1.08.39,0,.66-.46,1.06-1.7,0-.47.39-1.08,1.06-1.86.13-.31.4-.62.66-.78.66-.93,1.32-2.01,1.59-3.56.13-.31.13-.46,0-.61,0,0-.13,0-.4.15Zm-4.62-13.31c.27.16.53.16.79,0,.39-.15.93-.46,1.98-.93.79-.46,1.84-.93,3.04-1.55-.13,1.08-.53,2.32-1.19,3.72-.26-.16-.92-.16-1.84.15-.8.32-1.85.78-3.17,1.4.13-1.08.26-2.01.39-2.79Z"/><path class="uuid-239d03d1-0316-42bc-b333-e0cfa7ad3939" d="m331.56,4.18c-1.32-.15-2.25.16-2.78.93-1.05,1.24-2.37,2.32-3.69,3.09-.66.31-.53.47.13.77,1.06.47,2.11.62,3.04.77.4,0,.66,0,.8.16v.62c-.27,1.71.13,3.41,1.05,4.96.27.46.4.93.4,1.24-.14.62-.66.46-1.45-.15-.53-.32-.93-.62-1.32-1.08,0-.47-.13-1.08-.4-1.4-.4-.62-.66-1.08-.79-1.7,0-.31-.13-.46-.39-.46-.39-.16-.66.31-.79,1.08-.13,1.4-.4,3.41-.4,6.35-.13,3.25-.39,5.58-.66,7.12-.53,3.1.13,5.73,1.98,7.89.52.47.79.62.92.62.26,0,.39-.16.53-.47,1.72-5.57,2.64-9.13,2.91-10.99,0-.16,0-.31-.13-.31l-.14.15c-1.32,3.25-2.64,5.42-4.09,6.5h-.14c-.13,0-.13-.62-.13-2.01.13-1.7.53-3.56.93-5.73.27-1.7.53-3.25.66-4.96.4.93.93,1.86,1.59,2.94.66,1.39,1.19,2.01,1.45,2.01s.53-.16.79-.62c1.59-3.1,1.85-5.73.79-7.74-.53-1.54-.13-3.87,1.19-6.96.26-.47.26-.93,0-1.55-.13-.47-.79-.77-1.85-1.09Z"/><path class="uuid-239d03d1-0316-42bc-b333-e0cfa7ad3939" d="m350.58,28.63c-1.72-.93-3.57-2.32-5.28-4.33.13,0,.26-.16.4-.16,1.98-1.24,3.04-2.32,3.04-3.25,0-.62-.13-1.4-.26-2.17-.26-.62-.53-1.08-.79-1.24-.4,0-.66.16-.93.16-.13.15-.26.77-.26,1.7,0,.77-.66,1.7-2.11,2.79-.4.15-.66.31-1.06.46-.79-.46-1.71-.93-2.5-.93-.93-.16-1.98-.16-2.91.31-.4,0-.4.16-.26.46,1.19.77,2.24,1.4,3.17,1.7l.13.16c1.32.47,2.51,1.55,3.57,3.1,1.45,2.32,2.77,3.71,3.83,4.02.4.16.92.31,1.46.47,1.45.31,2.77.46,4.09.46.66,0,.93-.16.53-.62-.93-1.24-2.25-2.32-3.83-3.09Z"/><path class="uuid-239d03d1-0316-42bc-b333-e0cfa7ad3939" d="m366.04,12.54c1.45-1.55,2.51-2.32,3.17-2.48.27,0,.39-.15.66-.31.13-.31.27-.77.4-1.24,0-.62-.4-1.24-1.05-1.7-.92-.77-1.98-1.39-3.43-1.7-.13,0-.27-.16-.53-.16-.27-.15-.53,0-.53.16-.13.16-.13.31,0,.62.27.31.27.78.13,1.24-.13,1.4-1.19,3.1-3.17,5.42q-.13,0-.26.16c-.8.92-1.72,1.7-2.78,2.32-.4.16-.53.93-.13,2.48.13.31.13.47.39.47,0,.16.27,0,.66-.31,2.37-1.4,4.49-2.94,6.21-4.8l.26-.15Z"/><path class="uuid-239d03d1-0316-42bc-b333-e0cfa7ad3939" d="m381.49,5.11c-1.32-.31-3.03-.31-5.15.16-.4.15-.53.31-.13.77,2.25.77,3.57,1.7,3.97,2.79-.4.93-2.12,1.7-5.15,2.63,0,0-.14.16-.14.31,0,0,.14.16.4.16,1.32,0,2.64-.16,3.96-.31,1.19-.16,2.24-.16,3.3,0,.79.15,1.32.15,1.72-.16.27-.46.53-.93.66-1.55,0-.77-.13-1.55-.53-2.32-.53-1.08-1.45-2.01-2.91-2.48Z"/><path class="uuid-239d03d1-0316-42bc-b333-e0cfa7ad3939" d="m377,21.52c-.4-.31-.66-.47-.93-.47-.13,0-.27,0-.4.16-.13,0-.13.16,0,.47,0,.15,0,.31.13.62.27.62.66,1.4.93,2.32-1.71-.16-3.7,0-6.21.62-.66.16-.93.16-1.06,0,0,0,.13-.31.39-.77.79-1.08,1.45-2.01,1.98-3.09.53-.78,1.06-1.55,1.72-2.32,1.05-.93,1.05-2.17-.13-3.88-.53-.77-1.59-1.39-2.9-2-.27-.16-.4-.16-.53-.16-.13.16,0,.31.13.62.53,1.08.4,2.32-.27,4.02-1.32,3.1-2.64,5.41-4.09,7.28-.4.62-.66,1.08-1.06,1.39-.4.31-.79.47-1.06.62h-1.06c-.26,0-.53,0-.79.15-.39,0-.53.62-.27,1.39.4,1.24.79,2.33,1.32,3.25.27.62.66.78,1.19.62.53-.16,1.06-.62,1.72-1.08,2.24-1.7,5.02-2.94,8.72-3.87.26-.16,1.19-.46,2.91-.77.27.46.4,1.08.53,1.55.53,1.86,1.06,3.25,1.32,3.86.26.32.39.47.53.47s.4-.16.53-.78c.92-2.32,1.19-3.87,1.05-4.95-.39-1.4-1.85-3.09-4.35-5.26Z"/></g><g><polygon class="uuid-239d03d1-0316-42bc-b333-e0cfa7ad3939" points="374.12 40.78 378.53 40.78 378.53 50.93 384.08 50.93 384.08 40.78 388.49 40.78 388.49 39.72 374.12 39.72 374.12 40.78"/><path class="uuid-239d03d1-0316-42bc-b333-e0cfa7ad3939" d="m202.75,39.72h-.51l-5.42,11.21h2.02l1.26-2.37h5.42l1.01,2.37h5.3l-5.04-11.21h-4.03Zm0,7.69h-2.14l2.14-4.82.12-.17,2.15,4.99h-2.27Z"/><path class="uuid-239d03d1-0316-42bc-b333-e0cfa7ad3939" d="m220.89,43.48c-2.14-.49-3.27-1.06-3.27-1.72,0-.9,1.01-1.39,3.02-1.39,2.52,0,3.78.65,3.78,1.96,0,.25,0,.49-.13.82l2.39-.33c0-2.21-2.01-3.35-5.92-3.35-2.02,0-3.53.33-4.66.98-1.26.57-1.89,1.39-1.89,2.45,0,1.71,1.89,3.03,5.42,3.84,2.39.57,3.65,1.23,3.65,1.96,0,1.06-1.01,1.55-3.02,1.55-2.65,0-3.91-.74-3.91-2.13,0-.33.12-.74.25-1.23l-2.52.33v.66c0,2.21,2.27,3.27,6.68,3.27,2.02,0,3.66-.33,4.91-.98,1.13-.65,1.76-1.47,1.76-2.53,0-1.88-2.14-3.27-6.55-4.17Z"/><path class="uuid-239d03d1-0316-42bc-b333-e0cfa7ad3939" d="m413.32,48.23c-1.64,0-2.4.49-2.4,1.47,0,.9.76,1.39,2.4,1.39,1.51,0,2.27-.49,2.27-1.39,0-.98-.76-1.47-2.27-1.47Z"/><polygon class="uuid-239d03d1-0316-42bc-b333-e0cfa7ad3939" points="188.38 39.72 183.21 39.72 183.21 50.93 195.81 50.93 195.81 49.86 188.38 49.86 188.38 39.72"/><polygon class="uuid-239d03d1-0316-42bc-b333-e0cfa7ad3939" points="93.61 39.72 88.31 39.72 88.31 50.93 101.04 50.93 101.04 49.86 93.61 49.86 93.61 39.72"/><rect class="uuid-239d03d1-0316-42bc-b333-e0cfa7ad3939" x="103.81" y="39.72" width="5.29" height="11.21"/><polygon class="uuid-239d03d1-0316-42bc-b333-e0cfa7ad3939" points="148.81 44.22 144.52 44.22 144.52 39.72 139.35 39.72 139.35 50.93 144.52 50.93 144.52 45.37 148.81 45.37 148.81 50.93 154.1 50.93 154.1 39.72 148.81 39.72 148.81 44.22"/><rect class="uuid-239d03d1-0316-42bc-b333-e0cfa7ad3939" x="129.27" y="39.72" width="5.29" height="11.21"/><polygon class="uuid-239d03d1-0316-42bc-b333-e0cfa7ad3939" points="121.08 45.12 117.43 39.72 111.88 39.72 116.79 46.84 116.79 50.93 122.09 50.93 122.09 46.84 126.5 39.72 124.36 39.72 121.08 45.12"/><path class="uuid-239d03d1-0316-42bc-b333-e0cfa7ad3939" d="m173.13,39.72h-7.82v11.21h5.3v-4.58h2.02c4.79,0,7.18-1.15,7.18-3.35s-2.27-3.27-6.68-3.27Zm-.51,5.48c-.25.08-.63.08-.88.08h-1.14v-4.58h1.14c.25,0,.63,0,.88.08,1.26.16,2.02.9,2.02,2.13,0,1.39-.75,2.13-2.02,2.29Z"/><path class="uuid-239d03d1-0316-42bc-b333-e0cfa7ad3939" d="m323.33,39.48h-.12c-5.42.08-8.07,1.96-8.07,5.72s2.65,5.97,8.07,5.97,7.94-1.96,7.94-5.89-2.52-5.8-7.81-5.8Zm1.89,9.73c-.38.74-1.14,1.06-2.02,1.06-1.01,0-1.77-.33-2.02-1.06-.38-.66-.5-1.96-.5-3.93s.12-3.19.5-3.84c.25-.74,1.01-1.06,2.02-1.06.88,0,1.64.33,2.02,1.06.25.65.5,1.96.5,3.84s-.25,3.27-.5,3.93Z"/><path class="uuid-239d03d1-0316-42bc-b333-e0cfa7ad3939" d="m337.45,48.23c-1.51,0-2.27.49-2.27,1.47,0,.9.76,1.39,2.27,1.39s2.39-.49,2.39-1.39c0-.98-.88-1.47-2.39-1.47Z"/><path class="uuid-239d03d1-0316-42bc-b333-e0cfa7ad3939" d="m346.9,48.06c-1.64,0-2.4.49-2.4,1.47s.76,1.47,2.14,1.47c-.25.49-.76.9-1.51,1.23v1.06c2.65-.49,4.03-1.72,4.03-3.44,0-1.14-.75-1.8-2.27-1.8Z"/><polygon class="uuid-239d03d1-0316-42bc-b333-e0cfa7ad3939" points="229.59 40.78 234.12 40.78 234.12 50.93 239.67 50.93 239.67 40.78 244.08 40.78 244.08 39.72 229.59 39.72 229.59 40.78"/><path class="uuid-239d03d1-0316-42bc-b333-e0cfa7ad3939" d="m399.08,39.72h-7.56v11.21h7.56c5.29-.08,7.94-1.96,7.94-5.56s-2.65-5.64-7.94-5.64Zm1.64,9.33c-.25.41-.88.74-1.64.9-.25.08-.51.08-.88.08h-1.39v-9.41h1.39c.38,0,.63,0,.88.08.75.16,1.39.41,1.77.9.38.74.63,1.96.63,3.68s-.25,3.03-.76,3.77Z"/><polygon class="uuid-239d03d1-0316-42bc-b333-e0cfa7ad3939" points="365.67 39.72 360.38 39.72 360.38 50.93 373.11 50.93 373.11 49.86 365.67 49.86 365.67 39.72"/><rect class="uuid-239d03d1-0316-42bc-b333-e0cfa7ad3939" x="247.1" y="39.72" width="5.29" height="11.21"/><path class="uuid-239d03d1-0316-42bc-b333-e0cfa7ad3939" d="m269.02,46.43c.12.49.25.82.25,1.07,0,.81-.38,1.47-1.01,1.96-.75.57-1.63.82-2.64.82-2.52,0-3.78-1.55-3.78-4.58,0-3.52,1.13-5.32,3.4-5.32,2.14,0,3.15.9,3.15,2.54v.74l2.27-.65c0-2.29-2.01-3.52-5.92-3.52-2.52,0-4.54.57-6.05,1.72-1.64,1.06-2.39,2.54-2.39,4.34,0,3.76,2.64,5.64,8.06,5.64,2.15,0,3.78-.33,5.17-.98,1.26-.65,1.89-1.55,1.89-2.62,0-.24,0-.49-.12-.74l-2.27-.41Z"/><path class="uuid-239d03d1-0316-42bc-b333-e0cfa7ad3939" d="m281.11,43.48c-2.26-.49-3.4-1.06-3.4-1.72,0-.9,1.01-1.39,3.03-1.39,2.52,0,3.78.65,3.78,1.96,0,.25,0,.49-.12.82l2.39-.33c0-2.21-2.02-3.35-5.92-3.35-1.89,0-3.53.33-4.67.98-1.26.57-1.76,1.39-1.76,2.45,0,1.71,1.76,3.03,5.29,3.84,2.52.57,3.66,1.23,3.66,1.96,0,1.06-1.01,1.55-3.03,1.55-2.65,0-3.91-.74-3.91-2.13,0-.33.13-.74.26-1.23l-2.52.33v.66c0,2.21,2.26,3.27,6.68,3.27,2.02,0,3.65-.33,4.92-.98,1.13-.65,1.76-1.47,1.76-2.53,0-1.88-2.14-3.27-6.42-4.17Z"/><path class="uuid-239d03d1-0316-42bc-b333-e0cfa7ad3939" d="m310.22,47.49c0,.81-.38,1.47-1.13,1.96-.63.57-1.51.82-2.52.82-2.52,0-3.78-1.55-3.78-4.58,0-3.52,1.13-5.32,3.4-5.32,2.14,0,3.15.9,3.15,2.54v.74l2.27-.65c0-2.29-2.02-3.52-5.92-3.52-2.52,0-4.54.57-6.18,1.72-1.51,1.06-2.27,2.54-2.27,4.34,0,3.76,2.65,5.64,8.07,5.64,2.14,0,3.78-.33,5.04-.98,1.26-.65,1.89-1.55,1.89-2.62v-.74l-2.27-.41c.13.49.25.82.25,1.07Z"/></g></g></g></svg>