<?xml version="1.0" encoding="UTF-8"?><svg id="uuid-3c02b155-7dfc-43f3-9762-85027cfa9000" xmlns="http://www.w3.org/2000/svg" viewBox="0 0 75 75.01"><defs><style>.uuid-9e2f3bb0-f84e-4a88-a5ac-50278bf3e68c{fill:#fff;}.uuid-10a6f5a7-154d-4e2f-a523-8967021bd18e{fill:#e5e5e5;}.uuid-5b8dbd1d-28a2-4955-939f-4ee6ed139b0c{fill:#4776b6;}</style></defs><g id="uuid-8f953a3f-70a6-4540-8ad4-f05e3ef94c92"><g><g><path class="uuid-9e2f3bb0-f84e-4a88-a5ac-50278bf3e68c" d="m37.96,74.5c-2.39,0-4.87-.23-7.38-.67-7.94-1.41-14.83-5.27-20.47-11.47-4.81-5.28-7.85-11.52-9.04-18.56-.16-.94-.28-1.88-.4-2.83-.06-.45-.11-.89-.17-1.34v-4.33s.04-.15.04-.15c.03-.19.07-.37.09-.56.06-.45.11-.9.17-1.35.1-.89.21-1.8.38-2.68,1.55-8.06,5.42-14.94,11.48-20.47C17.93,5.31,24.17,2.26,31.2,1.07c.94-.16,1.9-.28,2.85-.4.44-.06.89-.11,1.33-.17h4.33s.87.11.87.11c.65.07,1.3.14,1.95.24,8.83,1.29,16.24,5.15,22.03,11.47,7.83,8.54,11.05,18.68,9.59,30.15-1.12,8.75-4.96,16.18-11.44,22.1-7.22,6.6-15.55,9.95-24.76,9.95Z"/><path class="uuid-10a6f5a7-154d-4e2f-a523-8967021bd18e" d="m39.65,1c.29.03.58.07.87.1.64.07,1.3.14,1.94.24,8.71,1.27,16.02,5.08,21.74,11.31,7.72,8.43,10.91,18.43,9.46,29.75-1.1,8.62-4.9,15.96-11.28,21.8-7.12,6.51-15.34,9.82-24.42,9.82-2.36,0-4.81-.22-7.29-.66-7.83-1.39-14.62-5.2-20.19-11.31-4.74-5.2-7.74-11.36-8.92-18.3-.16-.93-.28-1.89-.4-2.82-.05-.42-.11-.84-.16-1.26v-4.24l.03-.15c.04-.19.07-.39.1-.58.06-.45.11-.9.17-1.35.11-.92.21-1.79.37-2.65,1.53-7.95,5.35-14.74,11.33-20.19C18.19,5.74,24.35,2.74,31.29,1.56c.93-.16,1.89-.28,2.82-.4.42-.05.85-.11,1.27-.16h4.27m.06-1h-4.4c-1.4.19-2.8.34-4.19.57-7.16,1.22-13.44,4.28-18.8,9.17C6.15,15.35,2.26,22.28.68,30.48c-.26,1.34-.37,2.7-.55,4.06-.03.26-.09.52-.13.78v4.4c.19,1.4.34,2.8.57,4.19,1.22,7.16,4.28,13.44,9.17,18.81,5.62,6.17,12.53,10.16,20.75,11.62,2.55.45,5.04.68,7.46.68,9.33,0,17.74-3.35,25.1-10.08,6.58-6.02,10.47-13.57,11.6-22.41,1.48-11.64-1.79-21.89-9.72-30.55C58.93,5.42,51.4,1.63,42.61.35c-.96-.14-1.93-.23-2.9-.35h0Z"/></g><path class="uuid-5b8dbd1d-28a2-4955-939f-4ee6ed139b0c" d="m47.41,55.25c1.65,0,3.16-.3,4.61-.96,1.81-.82,3.11-2.25,4.47-3.61,1.01-1.01,1.02-1.81,0-2.82-2.15-2.16-4.31-4.32-6.47-6.48-1-1-1.83-.99-2.83.02-1.19,1.19-2.36,2.41-3.55,3.59-1.39,1.38-3.1,1.5-4.7.36-4.2-3-7.85-6.57-10.94-10.71-1.32-1.77-1.21-3.41.34-4.97,1.22-1.23,2.46-2.44,3.67-3.68.88-.9.9-1.73.02-2.62-2.22-2.24-4.44-4.46-6.68-6.68-.86-.85-1.7-.85-2.57-.02-.72.69-1.43,1.4-2.12,2.13-2.24,2.37-3.27,5.16-2.82,8.43.32,2.33,1.29,4.45,2.37,6.49,4.56,8.58,11.2,15.06,19.94,19.32,2.3,1.12,4.7,2.03,7.24,2.21Z"/></g></g></svg>