<?xml version="1.0" encoding="UTF-8"?><svg id="uuid-db0ca259-93b2-4be9-a3ad-9905ba70f800" xmlns="http://www.w3.org/2000/svg" viewBox="0 0 75 75.01"><defs><style>.uuid-3ed76dd4-af3e-4cf9-b5af-e19dee4b0afd{fill:#fff;}.uuid-62ebef29-b7df-47b7-a4e9-5db6395387d4{fill:#e5e5e5;}.uuid-c480a2f0-1f2e-4393-b8ed-b078c1c81832{fill:#4776b6;stroke:#4776b6;stroke-miterlimit:10;stroke-width:2px;}</style></defs><g id="uuid-8ae67e5e-6a8c-4576-9ed6-8f56469dcd97"><g><g><path class="uuid-3ed76dd4-af3e-4cf9-b5af-e19dee4b0afd" d="m37.96,74.5c-2.39,0-4.87-.23-7.38-.67-7.94-1.41-14.83-5.27-20.47-11.47-4.81-5.28-7.85-11.52-9.04-18.56-.16-.94-.28-1.89-.4-2.83-.06-.45-.11-.89-.17-1.34v-4.33s.04-.14.04-.14c.03-.19.07-.38.09-.56.06-.45.11-.9.17-1.35.1-.89.21-1.8.38-2.68,1.55-8.06,5.42-14.95,11.48-20.47C17.93,5.3,24.17,2.26,31.2,1.07c.95-.16,1.9-.28,2.86-.4.44-.05.88-.11,1.32-.17h4.33s.86.11.86.11c.66.07,1.31.15,1.97.24,8.83,1.29,16.24,5.15,22.03,11.47,7.83,8.54,11.05,18.68,9.59,30.15-1.12,8.75-4.96,16.18-11.44,22.1-7.22,6.6-15.55,9.95-24.76,9.95Z"/><path class="uuid-62ebef29-b7df-47b7-a4e9-5db6395387d4" d="m39.65,1c.29.03.58.07.87.1.64.07,1.3.14,1.94.24,8.71,1.27,16.02,5.08,21.74,11.31,7.72,8.43,10.91,18.43,9.46,29.75-1.1,8.62-4.9,15.96-11.28,21.8-7.12,6.51-15.34,9.82-24.42,9.82-2.36,0-4.81-.22-7.29-.66-7.83-1.39-14.62-5.2-20.19-11.31-4.74-5.2-7.74-11.36-8.92-18.3-.16-.93-.28-1.89-.4-2.82-.05-.42-.11-.84-.16-1.27v-4.24l.03-.15c.04-.19.07-.39.1-.58.06-.45.11-.9.17-1.35.11-.92.21-1.79.37-2.65,1.53-7.95,5.35-14.74,11.33-20.19C18.19,5.74,24.35,2.74,31.29,1.56c.93-.16,1.89-.28,2.82-.4.42-.05.85-.11,1.27-.16h4.27m.06-1h-4.4c-1.4.19-2.8.34-4.19.57-7.16,1.22-13.44,4.28-18.8,9.17C6.15,15.35,2.26,22.28.68,30.48c-.26,1.34-.37,2.7-.55,4.06-.03.26-.09.52-.13.78v4.4c.19,1.4.34,2.8.57,4.19,1.22,7.16,4.28,13.44,9.17,18.81,5.62,6.17,12.53,10.16,20.75,11.62,2.55.45,5.04.68,7.46.68,9.33,0,17.74-3.35,25.1-10.08,6.58-6.02,10.47-13.57,11.6-22.41,1.48-11.64-1.79-21.89-9.72-30.55C58.93,5.42,51.4,1.63,42.61.35c-.96-.14-1.93-.23-2.9-.35h0Z"/></g><path class="uuid-c480a2f0-1f2e-4393-b8ed-b078c1c81832" d="m37.48,32.43c.19.23.28.37.4.49,3.96,3.97,7.93,7.93,11.89,11.9.43.43.89.67,1.5.48.9-.28,1.24-1.36.66-2.1-.09-.12-.21-.22-.32-.33-4.32-4.32-8.64-8.64-12.96-12.96-.83-.83-1.5-.83-2.33,0-4.33,4.33-8.66,8.66-12.98,13-.24.24-.44.55-.54.87-.16.52.13,1.11.61,1.4.48.29,1.09.25,1.53-.1.14-.11.26-.25.39-.38,3.93-3.93,7.85-7.85,11.78-11.78.12-.12.21-.26.38-.49Z"/></g></g></svg>