<?xml version="1.0" encoding="UTF-8"?><svg id="uuid-fcd430dc-aa89-41a8-bf62-610d800dd166" xmlns="http://www.w3.org/2000/svg" viewBox="0 0 79 79.2"><defs><style>.uuid-bb7a67ff-1a56-4f97-b234-2fcbedf0b097{fill:#fff;}.uuid-161e6632-0a6d-4a4f-8877-cbaf3d22a78c{fill:#4776b6;}</style></defs><g id="uuid-16f24d2f-3f78-40df-9581-faf4c1039c84"><g><path class="uuid-bb7a67ff-1a56-4f97-b234-2fcbedf0b097" d="m38.56,17.87c13.74-.11,24.24,10.54,23.31,22.81-1,13.25-12.34,22.34-25.47,20.29-2.69-.42-5.17-.51-7.62.85-2.56,1.41-3.98.43-3.93-2.36.04-2.19-.7-3.79-2.14-5.46-6.11-7.11-7.24-15.19-3.39-23.65,3.85-8.47,11.16-11.88,19.24-12.47Zm5.11,28.76c1.16-.07,2.13-.67,2.82-1.7,1.13-1.7,2.44-3.34,3.26-5.18.95-2.13,4.43-4.3,2.56-6.18-1.44-1.45-3.62,2.02-5.57,3.13-1.69.96-2.77,2.72-5.29.95-7.09-4.98-7.19-4.83-11.91,2.7-.47.74-1.07,1.43-1.37,2.24-.58,1.53-3.19,3.01-1.57,4.44,1.49,1.32,3.12-1.04,4.22-2.11,3.22-3.11,6.12-3.45,9.3-.05.88.94,2.07,1.62,3.56,1.76Z"/><path class="uuid-161e6632-0a6d-4a4f-8877-cbaf3d22a78c" d="m43.7,46.63c-1.48-.14-2.68-.82-3.56-1.76-3.18-3.39-6.07-3.06-9.3.05-1.1,1.06-2.72,3.43-4.22,2.11-1.62-1.43.99-2.91,1.57-4.44.3-.8.91-1.49,1.37-2.24,4.73-7.54,4.83-7.68,11.91-2.7,2.51,1.77,3.6,0,5.29-.95,1.95-1.11,4.12-4.58,5.57-3.13,1.88,1.88-1.61,4.05-2.56,6.18-.82,1.85-2.13,3.48-3.26,5.18-.68,1.03-1.65,1.63-2.82,1.7Z"/><path class="uuid-161e6632-0a6d-4a4f-8877-cbaf3d22a78c" d="m73.71,59.68c-6.07,9.02-14.21,15.27-24.67,18.4-11.71,2.64-22.63.65-32.37-6.28C.56,60.32-4.42,40.06,4.13,22.17c.44-.91.78-1.87,1.17-2.81C14.25,5.99,26.82-.37,42.86.02c3.48.84,6.96,1.68,10.44,2.52,9.32,3.83,16.45,10.15,21.43,18.89,1.16,3.41,2.32,6.82,3.48,10.22,2.08,9.92-.13,19.15-4.5,28.03ZM38.48,17.87c-8.08.59-15.39,4-19.24,12.47-3.85,8.46-2.73,16.54,3.39,23.65,1.44,1.67,2.17,3.27,2.14,5.46-.05,2.8,1.38,3.78,3.93,2.36,2.45-1.35,4.93-1.27,7.62-.85,13.13,2.05,24.47-7.04,25.47-20.29.93-12.27-9.56-22.92-23.31-22.81Z"/></g></g></svg>